<svg xmlns="http://www.w3.org/2000/svg" xmlns:xlink="http://www.w3.org/1999/xlink" xmlns:lucid="lucid" width="1090" height="1043.85"><g transform="translate(-270 -100)" lucid:page-tab-id="yX4LJ1jULRaL"><path d="M290 126c0-3.3 2.7-6 6-6h508c3.3 0 6 2.7 6 6v628c0 3.3-2.7 6-6 6H296c-3.3 0-6-2.7-6-6z" stroke="#5e5e5e" stroke-width="3" fill="#f9d2de"/><use xlink:href="#a" transform="matrix(1,0,0,1,295,125) translate(0 629.7945389511111)"/><use xlink:href="#b" transform="matrix(1,0,0,1,295,125) translate(177.90740740740742 629.7945389511111)"/><path d="M290 786c0-3.3 2.7-6 6-6h508c3.3 0 6 2.7 6 6v328c0 3.3-2.7 6-6 6H296c-3.3 0-6-2.7-6-6z" stroke="#5e5e5e" stroke-width="3" fill="#c7e8ac"/><use xlink:href="#c" transform="matrix(1,0,0,1,295,785) translate(0 329.9641173333333)"/><use xlink:href="#d" transform="matrix(1,0,0,1,295,785) translate(106.37037037037037 329.9641173333333)"/><use xlink:href="#e" transform="matrix(1,0,0,1,295,785) translate(235.037037037037 329.9641173333333)"/><path d="M484.68 817.23c-1.05.1-1.9.3-2.74.74L445.3 836c-2 .96-3.37 2.65-3.8 4.87l-9.07 40.64c-.42 1.9-.1 3.8.95 5.5.1.2.2.3.42.52l25.34 32.5c1.37 1.8 3.27 2.76 5.5 2.76h40.73c2.22 0 4.12-.95 5.5-2.75l25.32-32.5c1.37-1.8 1.9-3.9 1.37-6.13l-9.08-40.53c-.43-2.22-1.8-3.9-3.8-4.86l-36.64-18.03c-1.16-.53-2.22-.85-3.38-.74z" stroke="#000" stroke-opacity="0" stroke-width="3.83" fill="#326ce5"/><path d="M484.67 814.3c-1.12.1-2 .32-2.9.77l-38.67 19.05c-2.1 1-3.56 2.8-4 5.13l-9.6 42.9c-.44 2-.1 4 1 5.8.12.2.23.32.46.55l26.74 34.32c1.45 1.9 3.45 2.9 5.8 2.9h43c2.35 0 4.35-1 5.8-2.9l26.74-34.32c1.45-1.9 2-4.13 1.45-6.35l-9.6-42.9c-.44-2.34-1.9-4.13-4-5.13l-38.67-19.05c-1.22-.56-2.34-.9-3.56-.78zm0 3c1.22-.12 2.22.1 3.34.66L524.8 836c1.9 1.02 3.23 2.7 3.8 4.92l9 40.56c.46 2.23 0 4.23-1.32 6l-25.4 32.55c-1.35 1.78-3.24 2.8-5.47 2.8h-40.8c-2.22 0-4.1-1.02-5.45-2.8l-25.4-32.54c-.12-.12-.23-.34-.34-.56-1.1-1.67-1.44-3.46-1-5.46l9.03-40.56c.56-2.23 1.78-3.9 3.8-4.9l36.76-18.06c.88-.44 1.66-.67 2.67-.78z" stroke="#000" stroke-opacity="0" stroke-width="3.83" fill="#fff"/><path d="M475.5 909.06c0 1.26.2 2.2.58 2.8.38.62.97.92 1.74.92.55 0 1-.15 1.36-.46.37-.3.6-.77.68-1.4l1.55.1c-.1.92-.48 1.65-1.12 2.2-.63.53-1.44.8-2.4.8-1.3 0-2.3-.4-2.97-1.24-.66-.85-1-2.07-1-3.7 0-1.58.34-2.8 1.02-3.64.68-.84 1.65-1.26 2.92-1.26.95 0 1.73.26 2.35.76.6.5 1 1.2 1.16 2.08l-1.57.1c-.1-.5-.3-.93-.62-1.24-.32-.3-.78-.46-1.37-.46-.8 0-1.4.28-1.76.83-.36.56-.54 1.5-.54 2.8zM483.08 913.85v-7.28c0-.66 0-1.4-.05-2.2h1.45l.07 1.93h.03c.24-.8.52-1.37.84-1.67.32-.3.77-.45 1.34-.45.2 0 .42.03.63.1v1.44c-.22-.06-.5-.08-.83-.08-.63 0-1.12.28-1.45.85-.34.55-.5 1.35-.5 2.4v4.95zM494.68 912.33c-.28.6-.65 1.04-1.13 1.3-.47.27-1.05.4-1.74.4-1.15 0-2-.4-2.56-1.22-.54-.8-.8-2.02-.8-3.65 0-3.32 1.12-4.97 3.37-4.97.7 0 1.3.14 1.76.4.47.26.84.7 1.12 1.25h.02l-.02-1.05v-3.95h1.53v11.06c0 .98.04 1.64.07 1.96h-1.47l-.05-.66-.03-.87zm-4.64-3.24c0 1.33.17 2.28.5 2.84.35.58.9.87 1.67.87.88 0 1.5-.3 1.9-.92.4-.62.58-1.6.58-2.9 0-1.25-.2-2.17-.58-2.75-.4-.58-1.02-.88-1.88-.88-.77 0-1.32.3-1.68.9-.33.57-.5 1.52-.5 2.84z" stroke="#000" stroke-opacity="0" fill="#fff"/><path d="M511.3 862.7h-4.24v-11.75c0-3.27-2.58-5.92-5.75-5.92h-11.37v-4.4c0-4.06-3.24-7.34-7.13-7.34-3.95 0-7.13 3.27-7.13 7.34v4.4h-11.44c-3.12 0-5.7 2.64-5.7 5.9v11.2h4.26c4.24 0 7.72 3.5 7.72 7.9 0 4.38-3.48 7.96-7.73 7.96h-4.26v11.18c0 3.2 2.57 5.86 5.7 5.86h10.83v-4.38c0-4.38 3.48-7.97 7.73-7.97s7.67 3.58 7.67 7.96v4.38h10.84c3.18 0 5.76-2.65 5.76-5.86v-11.8h4.25c3.97 0 7.14-3.27 7.14-7.34 0-4.02-3.17-7.35-7.13-7.35z" stroke="#000" stroke-opacity="0" stroke-width="1.74" fill="#fff"/><path d="M596.1 817.23c-1.04.1-1.9.3-2.73.74L556.74 836c-2 .96-3.38 2.65-3.8 4.87l-9.08 40.64c-.42 1.9-.1 3.8.95 5.5.12.2.22.3.43.52l25.34 32.5c1.37 1.8 3.27 2.76 5.5 2.76h40.73c2.22 0 4.12-.95 5.5-2.75l25.32-32.5c1.37-1.8 1.9-3.9 1.37-6.13l-9.08-40.53c-.43-2.22-1.8-3.9-3.8-4.86l-36.63-18.03c-1.17-.53-2.23-.85-3.4-.74z" stroke="#000" stroke-opacity="0" stroke-width="3.83" fill="#326ce5"/><path d="M596.1 814.3c-1.12.1-2 .32-2.9.77l-38.67 19.05c-2.12 1-3.56 2.8-4 5.13l-9.6 42.9c-.44 2-.1 4 1 5.8.12.2.23.32.46.55l26.73 34.32c1.45 1.9 3.45 2.9 5.8 2.9h43c2.34 0 4.35-1 5.8-2.9l26.74-34.32c1.45-1.9 2-4.13 1.45-6.35l-9.58-42.9c-.45-2.34-1.9-4.13-4-5.13l-38.68-19.05c-1.23-.56-2.34-.9-3.57-.78zm0 3c1.22-.12 2.22.1 3.34.66L636.2 836c1.9 1.02 3.24 2.7 3.8 4.92l9.02 40.56c.45 2.23 0 4.23-1.33 6l-25.42 32.55c-1.34 1.78-3.23 2.8-5.46 2.8h-40.78c-2.23 0-4.13-1.02-5.46-2.8l-25.4-32.54c-.12-.12-.23-.34-.34-.56-1.12-1.67-1.45-3.46-1-5.46l9.02-40.56c.56-2.23 1.78-3.9 3.8-4.9l36.76-18.06c.9-.44 1.67-.67 2.67-.78z" stroke="#000" stroke-opacity="0" stroke-width="3.83" fill="#fff"/><path d="M586.93 909.06c0 1.26.2 2.2.58 2.8.4.62.98.92 1.75.92.55 0 1-.15 1.36-.46.38-.3.6-.77.7-1.4l1.54.1c-.12.92-.5 1.65-1.13 2.2-.62.53-1.43.8-2.4.8-1.3 0-2.28-.4-2.96-1.24-.68-.85-1-2.07-1-3.7 0-1.58.32-2.8 1-3.64.68-.84 1.66-1.26 2.93-1.26.95 0 1.73.26 2.35.76.62.5 1 1.2 1.17 2.08l-1.58.1c-.08-.5-.3-.93-.6-1.24-.33-.3-.8-.46-1.4-.46-.8 0-1.38.28-1.75.83-.36.56-.54 1.5-.54 2.8zM594.5 913.85v-7.28c0-.66 0-1.4-.04-2.2h1.45l.08 1.93h.03c.25-.8.53-1.37.85-1.67.32-.3.77-.45 1.34-.45.2 0 .4.03.62.1v1.44c-.2-.06-.48-.08-.82-.08-.63 0-1.12.28-1.45.85-.34.55-.5 1.35-.5 2.4v4.95zM606.1 912.33c-.27.6-.65 1.04-1.12 1.3-.47.27-1.05.4-1.74.4-1.16 0-2.02-.4-2.57-1.22-.54-.8-.8-2.02-.8-3.65 0-3.32 1.12-4.97 3.37-4.97.7 0 1.28.14 1.75.4.45.26.83.7 1.1 1.25h.03l-.02-1.05v-3.95h1.54v11.06c0 .98.02 1.64.06 1.96h-1.47c-.02-.1-.03-.32-.05-.66-.02-.33-.04-.62-.04-.87zm-4.64-3.24c0 1.33.18 2.28.5 2.84.36.58.9.87 1.68.87.87 0 1.5-.3 1.88-.92.4-.62.6-1.6.6-2.9 0-1.25-.2-2.17-.6-2.75-.4-.58-1-.88-1.87-.88-.77 0-1.32.3-1.68.9-.33.57-.5 1.52-.5 2.84z" stroke="#000" stroke-opacity="0" fill="#fff"/><path d="M622.74 862.7h-4.25v-11.75c0-3.27-2.6-5.92-5.76-5.92h-11.38v-4.4c0-4.06-3.24-7.34-7.13-7.34-3.96 0-7.13 3.27-7.13 7.34v4.4h-11.44c-3.12 0-5.7 2.64-5.7 5.9v11.2h4.26c4.25 0 7.73 3.5 7.73 7.9 0 4.38-3.48 7.96-7.73 7.96h-4.25v11.18c0 3.2 2.57 5.86 5.7 5.86h10.83v-4.38c0-4.38 3.47-7.97 7.73-7.97 4.25 0 7.67 3.58 7.67 7.96v4.38h10.84c3.17 0 5.75-2.65 5.75-5.86v-11.8h4.24c3.96 0 7.13-3.27 7.13-7.34 0-4.02-3.17-7.35-7.13-7.35z" stroke="#000" stroke-opacity="0" stroke-width="1.74" fill="#fff"/><path d="M373.25 817.23c-1.05.1-1.9.3-2.74.74L333.9 836c-2 .96-3.38 2.65-3.8 4.87L321 881.5c-.42 1.9-.1 3.8.95 5.5.1.2.2.3.43.52l25.33 32.5c1.38 1.8 3.28 2.76 5.5 2.76h40.74c2.22 0 4.12-.95 5.5-2.75l25.33-32.5c1.37-1.8 1.9-3.9 1.37-6.13l-9.08-40.53c-.42-2.22-1.8-3.9-3.8-4.86l-36.63-18.03c-1.16-.53-2.22-.85-3.38-.74z" stroke="#000" stroke-opacity="0" stroke-width="3.83" fill="#326ce5"/><path d="M373.24 814.3c-1.12.1-2 .32-2.9.77l-38.67 19.05c-2.1 1-3.56 2.8-4 5.13l-9.6 42.9c-.44 2-.1 4 1 5.8.12.2.24.32.46.55l26.74 34.32c1.45 1.9 3.46 2.9 5.8 2.9h43c2.35 0 4.35-1 5.8-2.9l26.74-34.32c1.46-1.9 2.02-4.13 1.46-6.35l-9.58-42.9c-.45-2.34-1.9-4.13-4-5.13l-38.68-19.05c-1.22-.56-2.34-.9-3.56-.78zm0 3c1.22-.12 2.23.1 3.34.66L413.35 836c1.9 1.02 3.23 2.7 3.8 4.92l9.02 40.56c.44 2.23 0 4.23-1.34 6l-25.4 32.55c-1.34 1.78-3.24 2.8-5.47 2.8h-40.78c-2.23 0-4.12-1.02-5.46-2.8l-25.4-32.54c-.12-.12-.23-.34-.34-.56-1.1-1.67-1.45-3.46-1-5.46l9.02-40.56c.56-2.23 1.8-3.9 3.8-4.9l36.76-18.06c.9-.44 1.67-.67 2.68-.78z" stroke="#000" stroke-opacity="0" stroke-width="3.83" fill="#fff"/><path d="M364.07 909.06c0 1.26.2 2.2.58 2.8.38.62.97.92 1.74.92.54 0 1-.15 1.35-.46.37-.3.6-.77.7-1.4l1.53.1c-.12.92-.5 1.65-1.13 2.2-.63.53-1.44.8-2.4.8-1.3 0-2.3-.4-2.97-1.24-.67-.85-1-2.07-1-3.7 0-1.58.33-2.8 1-3.64.7-.84 1.66-1.26 2.93-1.26.96 0 1.74.26 2.36.76.62.5 1 1.2 1.17 2.08l-1.57.1c-.08-.5-.28-.93-.6-1.24-.33-.3-.8-.46-1.38-.46-.8 0-1.4.28-1.77.83-.35.56-.53 1.5-.53 2.8zM371.65 913.85v-7.28c0-.66 0-1.4-.05-2.2h1.45l.07 1.93h.03c.24-.8.53-1.37.84-1.67.3-.3.76-.45 1.34-.45.2 0 .4.03.62.1v1.44c-.2-.06-.48-.08-.82-.08-.63 0-1.12.28-1.45.85-.35.55-.52 1.35-.52 2.4v4.95zM383.26 912.33c-.3.6-.66 1.04-1.13 1.3-.47.27-1.05.4-1.74.4-1.17 0-2.04-.4-2.6-1.22-.53-.8-.8-2.02-.8-3.65 0-3.32 1.13-4.97 3.4-4.97.68 0 1.26.14 1.73.4s.84.7 1.13 1.25v-5h1.52v11.06c0 .98.03 1.64.06 1.96h-1.47l-.05-.66-.03-.87zm-4.65-3.24c0 1.33.18 2.28.52 2.84.34.58.9.87 1.66.87.87 0 1.5-.3 1.9-.92.38-.62.58-1.6.58-2.9 0-1.25-.2-2.17-.6-2.75-.38-.58-1-.88-1.87-.88-.77 0-1.33.3-1.68.9-.34.57-.5 1.52-.5 2.84z" stroke="#000" stroke-opacity="0" fill="#fff"/><path d="M399.9 862.7h-4.27v-11.75c0-3.27-2.57-5.92-5.75-5.92H378.5v-4.4c0-4.06-3.24-7.34-7.13-7.34-3.95 0-7.13 3.27-7.13 7.34v4.4H352.8c-3.12 0-5.7 2.64-5.7 5.9v11.2h4.26c4.26 0 7.73 3.5 7.73 7.9 0 4.38-3.48 7.96-7.74 7.96h-4.25v11.18c0 3.2 2.58 5.86 5.7 5.86h10.84v-4.38c0-4.38 3.48-7.97 7.73-7.97s7.67 3.58 7.67 7.96v4.38h10.84c3.18 0 5.75-2.65 5.75-5.86v-11.8h4.26c3.94 0 7.1-3.27 7.1-7.34 0-4.02-3.16-7.35-7.1-7.35z" stroke="#000" stroke-opacity="0" stroke-width="1.74" fill="#fff"/><path d="M373.25 937.23c-1.05.1-1.9.3-2.74.74L333.9 956c-2 .96-3.38 2.65-3.8 4.87L321 1001.5c-.42 1.9-.1 3.8.95 5.5.1.2.2.3.43.52l25.33 32.5c1.38 1.8 3.28 2.76 5.5 2.76h40.74c2.22 0 4.12-.95 5.5-2.75l25.33-32.5c1.37-1.8 1.9-3.9 1.37-6.13l-9.08-40.53c-.42-2.22-1.8-3.9-3.8-4.86l-36.63-18.03c-1.16-.53-2.22-.85-3.38-.74z" stroke="#000" stroke-opacity="0" stroke-width="3.83" fill="#326ce5"/><path d="M373.24 934.3c-1.12.1-2 .32-2.9.77l-38.67 19.05c-2.1 1-3.56 2.8-4 5.13l-9.6 42.9c-.44 2-.1 4 1 5.8.12.2.24.32.46.55l26.74 34.32c1.45 1.9 3.46 2.9 5.8 2.9h43c2.35 0 4.35-1 5.8-2.9l26.74-34.32c1.46-1.9 2.02-4.13 1.46-6.35l-9.58-42.9c-.45-2.34-1.9-4.13-4-5.13l-38.68-19.05c-1.22-.56-2.34-.9-3.56-.78zm0 3c1.22-.12 2.23.1 3.34.66L413.35 956c1.9 1.02 3.23 2.7 3.8 4.92l9.02 40.56c.44 2.23 0 4.23-1.34 6l-25.4 32.55c-1.34 1.78-3.24 2.8-5.47 2.8h-40.78c-2.23 0-4.12-1.02-5.46-2.8l-25.4-32.54c-.12-.12-.23-.34-.34-.56-1.1-1.67-1.45-3.46-1-5.46l9.02-40.56c.56-2.23 1.8-3.9 3.8-4.9l36.76-18.06c.9-.44 1.67-.67 2.68-.78z" stroke="#000" stroke-opacity="0" stroke-width="3.83" fill="#fff"/><path d="M364.07 1029.06c0 1.26.2 2.2.58 2.8.38.62.97.92 1.74.92.54 0 1-.15 1.35-.46.37-.3.6-.77.7-1.4l1.53.1c-.12.92-.5 1.65-1.13 2.2-.63.53-1.44.8-2.4.8-1.3 0-2.3-.4-2.97-1.24-.67-.85-1-2.07-1-3.7 0-1.58.33-2.8 1-3.64.7-.84 1.66-1.26 2.93-1.26.96 0 1.74.26 2.36.76.62.5 1 1.2 1.17 2.08l-1.57.1c-.08-.5-.28-.93-.6-1.24-.33-.3-.8-.46-1.38-.46-.8 0-1.4.28-1.77.83-.35.56-.53 1.5-.53 2.8zM371.65 1033.85v-7.28c0-.66 0-1.4-.05-2.2h1.45l.07 1.93h.03c.24-.8.53-1.37.84-1.67.3-.3.76-.45 1.34-.45.2 0 .4.03.62.1v1.44c-.2-.06-.48-.08-.82-.08-.63 0-1.12.28-1.45.85-.35.55-.52 1.35-.52 2.4v4.95zM383.26 1032.33c-.3.6-.66 1.04-1.13 1.3-.47.27-1.05.4-1.74.4-1.17 0-2.04-.4-2.6-1.22-.53-.8-.8-2.02-.8-3.65 0-3.32 1.13-4.97 3.4-4.97.68 0 1.26.14 1.73.4s.84.7 1.13 1.25v-5h1.52v11.06c0 .98.03 1.64.06 1.96h-1.47l-.05-.66-.03-.87zm-4.65-3.24c0 1.33.18 2.28.52 2.84.34.58.9.87 1.66.87.87 0 1.5-.3 1.9-.92.38-.62.58-1.6.58-2.9 0-1.25-.2-2.17-.6-2.75-.38-.58-1-.88-1.87-.88-.77 0-1.33.3-1.68.9-.34.57-.5 1.52-.5 2.84z" stroke="#000" stroke-opacity="0" fill="#fff"/><path d="M399.9 982.7h-4.27v-11.75c0-3.27-2.57-5.92-5.75-5.92H378.5v-4.4c0-4.06-3.24-7.34-7.13-7.34-3.95 0-7.13 3.27-7.13 7.34v4.4H352.8c-3.12 0-5.7 2.64-5.7 5.9v11.2h4.26c4.26 0 7.73 3.5 7.73 7.9 0 4.38-3.48 7.96-7.74 7.96h-4.25v11.18c0 3.2 2.58 5.86 5.7 5.86h10.84v-4.38c0-4.38 3.48-7.97 7.73-7.97s7.67 3.58 7.67 7.96v4.38h10.84c3.18 0 5.75-2.65 5.75-5.86v-11.8h4.26c3.94 0 7.1-3.27 7.1-7.34 0-4.02-3.16-7.35-7.1-7.35z" stroke="#000" stroke-opacity="0" stroke-width="1.74" fill="#fff"/><path d="M484.68 937.23c-1.05.1-1.9.3-2.74.74L445.3 956c-2 .96-3.37 2.65-3.8 4.87l-9.07 40.64c-.42 1.9-.1 3.8.95 5.5.1.2.2.3.42.52l25.34 32.5c1.37 1.8 3.27 2.76 5.5 2.76h40.73c2.22 0 4.12-.95 5.5-2.75l25.32-32.5c1.37-1.8 1.9-3.9 1.37-6.13l-9.08-40.53c-.43-2.22-1.8-3.9-3.8-4.86l-36.64-18.03c-1.16-.53-2.22-.85-3.38-.74z" stroke="#000" stroke-opacity="0" stroke-width="3.83" fill="#326ce5"/><path d="M484.67 934.3c-1.12.1-2 .32-2.9.77l-38.67 19.05c-2.1 1-3.56 2.8-4 5.13l-9.6 42.9c-.44 2-.1 4 1 5.8.12.2.23.32.46.55l26.74 34.32c1.45 1.9 3.45 2.9 5.8 2.9h43c2.35 0 4.35-1 5.8-2.9l26.74-34.32c1.45-1.9 2-4.13 1.45-6.35l-9.6-42.9c-.44-2.34-1.9-4.13-4-5.13l-38.67-19.05c-1.22-.56-2.34-.9-3.56-.78zm0 3c1.22-.12 2.22.1 3.34.66L524.8 956c1.9 1.02 3.23 2.7 3.8 4.92l9 40.56c.46 2.23 0 4.23-1.32 6l-25.4 32.55c-1.35 1.78-3.24 2.8-5.47 2.8h-40.8c-2.22 0-4.1-1.02-5.45-2.8l-25.4-32.54c-.12-.12-.23-.34-.34-.56-1.1-1.67-1.44-3.46-1-5.46l9.03-40.56c.56-2.23 1.78-3.9 3.8-4.9l36.76-18.06c.88-.44 1.66-.67 2.67-.78z" stroke="#000" stroke-opacity="0" stroke-width="3.83" fill="#fff"/><path d="M475.5 1029.06c0 1.26.2 2.2.58 2.8.38.62.97.92 1.74.92.55 0 1-.15 1.36-.46.37-.3.6-.77.68-1.4l1.55.1c-.1.92-.48 1.65-1.12 2.2-.63.53-1.44.8-2.4.8-1.3 0-2.3-.4-2.97-1.24-.66-.85-1-2.07-1-3.7 0-1.58.34-2.8 1.02-3.64.68-.84 1.65-1.26 2.92-1.26.95 0 1.73.26 2.35.76.6.5 1 1.2 1.16 2.08l-1.57.1c-.1-.5-.3-.93-.62-1.24-.32-.3-.78-.46-1.37-.46-.8 0-1.4.28-1.76.83-.36.56-.54 1.5-.54 2.8zM483.08 1033.85v-7.28c0-.66 0-1.4-.05-2.2h1.45l.07 1.93h.03c.24-.8.52-1.37.84-1.67.32-.3.77-.45 1.34-.45.2 0 .42.03.63.1v1.44c-.22-.06-.5-.08-.83-.08-.63 0-1.12.28-1.45.85-.34.55-.5 1.35-.5 2.4v4.95zM494.68 1032.33c-.28.6-.65 1.04-1.13 1.3-.47.27-1.05.4-1.74.4-1.15 0-2-.4-2.56-1.22-.54-.8-.8-2.02-.8-3.65 0-3.32 1.12-4.97 3.37-4.97.7 0 1.3.14 1.76.4.47.26.84.7 1.12 1.25h.02l-.02-1.05v-3.95h1.53v11.06c0 .98.04 1.64.07 1.96h-1.47l-.05-.66-.03-.87zm-4.64-3.24c0 1.33.17 2.28.5 2.84.35.58.9.87 1.67.87.88 0 1.5-.3 1.9-.92.4-.62.58-1.6.58-2.9 0-1.25-.2-2.17-.58-2.75-.4-.58-1.02-.88-1.88-.88-.77 0-1.32.3-1.68.9-.33.57-.5 1.52-.5 2.84z" stroke="#000" stroke-opacity="0" fill="#fff"/><path d="M511.3 982.7h-4.24v-11.75c0-3.27-2.58-5.92-5.75-5.92h-11.37v-4.4c0-4.06-3.24-7.34-7.13-7.34-3.95 0-7.13 3.27-7.13 7.34v4.4h-11.44c-3.12 0-5.7 2.64-5.7 5.9v11.2h4.26c4.24 0 7.72 3.5 7.72 7.9 0 4.38-3.48 7.96-7.73 7.96h-4.26v11.18c0 3.2 2.57 5.86 5.7 5.86h10.83v-4.38c0-4.38 3.48-7.97 7.73-7.97s7.67 3.58 7.67 7.96v4.38h10.84c3.18 0 5.76-2.65 5.76-5.86v-11.8h4.25c3.97 0 7.14-3.27 7.14-7.34 0-4.02-3.17-7.35-7.13-7.35z" stroke="#000" stroke-opacity="0" stroke-width="1.74" fill="#fff"/><path d="M596.1 937.23c-1.04.1-1.9.3-2.73.74L556.74 956c-2 .96-3.38 2.65-3.8 4.87l-9.08 40.64c-.42 1.9-.1 3.8.95 5.5.12.2.22.3.43.52l25.34 32.5c1.37 1.8 3.27 2.76 5.5 2.76h40.73c2.22 0 4.12-.95 5.5-2.75l25.32-32.5c1.37-1.8 1.9-3.9 1.37-6.13l-9.08-40.53c-.43-2.22-1.8-3.9-3.8-4.86l-36.63-18.03c-1.17-.53-2.23-.85-3.4-.74z" stroke="#000" stroke-opacity="0" stroke-width="3.83" fill="#326ce5"/><path d="M596.1 934.3c-1.12.1-2 .32-2.9.77l-38.67 19.05c-2.12 1-3.56 2.8-4 5.13l-9.6 42.9c-.44 2-.1 4 1 5.8.12.2.23.32.46.55l26.73 34.32c1.45 1.9 3.45 2.9 5.8 2.9h43c2.34 0 4.35-1 5.8-2.9l26.74-34.32c1.45-1.9 2-4.13 1.45-6.35l-9.58-42.9c-.45-2.34-1.9-4.13-4-5.13l-38.68-19.05c-1.23-.56-2.34-.9-3.57-.78zm0 3c1.22-.12 2.22.1 3.34.66L636.2 956c1.9 1.02 3.24 2.7 3.8 4.92l9.02 40.56c.45 2.23 0 4.23-1.33 6l-25.42 32.55c-1.34 1.78-3.23 2.8-5.46 2.8h-40.78c-2.23 0-4.13-1.02-5.46-2.8l-25.4-32.54c-.12-.12-.23-.34-.34-.56-1.12-1.67-1.45-3.46-1-5.46l9.02-40.56c.56-2.23 1.78-3.9 3.8-4.9l36.76-18.06c.9-.44 1.67-.67 2.67-.78z" stroke="#000" stroke-opacity="0" stroke-width="3.83" fill="#fff"/><path d="M586.93 1029.06c0 1.26.2 2.2.58 2.8.4.62.98.92 1.75.92.55 0 1-.15 1.36-.46.38-.3.6-.77.7-1.4l1.54.1c-.12.92-.5 1.65-1.13 2.2-.62.53-1.43.8-2.4.8-1.3 0-2.28-.4-2.96-1.24-.68-.85-1-2.07-1-3.7 0-1.58.32-2.8 1-3.64.68-.84 1.66-1.26 2.93-1.26.95 0 1.73.26 2.35.76.62.5 1 1.2 1.17 2.08l-1.58.1c-.08-.5-.3-.93-.6-1.24-.33-.3-.8-.46-1.4-.46-.8 0-1.38.28-1.75.83-.36.56-.54 1.5-.54 2.8zM594.5 1033.85v-7.28c0-.66 0-1.4-.04-2.2h1.45l.08 1.93h.03c.25-.8.53-1.37.85-1.67.32-.3.77-.45 1.34-.45.2 0 .4.03.62.1v1.44c-.2-.06-.48-.08-.82-.08-.63 0-1.12.28-1.45.85-.34.55-.5 1.35-.5 2.4v4.95zM606.1 1032.33c-.27.6-.65 1.04-1.12 1.3-.47.27-1.05.4-1.74.4-1.16 0-2.02-.4-2.57-1.22-.54-.8-.8-2.02-.8-3.65 0-3.32 1.12-4.97 3.37-4.97.7 0 1.28.14 1.75.4.45.26.83.7 1.1 1.25h.03l-.02-1.05v-3.95h1.54v11.06c0 .98.02 1.64.06 1.96h-1.47c-.02-.1-.03-.32-.05-.66-.02-.33-.04-.62-.04-.87zm-4.64-3.24c0 1.33.18 2.28.5 2.84.36.58.9.87 1.68.87.87 0 1.5-.3 1.88-.92.4-.62.6-1.6.6-2.9 0-1.25-.2-2.17-.6-2.75-.4-.58-1-.88-1.87-.88-.77 0-1.32.3-1.68.9-.33.57-.5 1.52-.5 2.84z" stroke="#000" stroke-opacity="0" fill="#fff"/><path d="M622.74 982.7h-4.25v-11.75c0-3.27-2.6-5.92-5.76-5.92h-11.38v-4.4c0-4.06-3.24-7.34-7.13-7.34-3.96 0-7.13 3.27-7.13 7.34v4.4h-11.44c-3.12 0-5.7 2.64-5.7 5.9v11.2h4.26c4.25 0 7.73 3.5 7.73 7.9 0 4.38-3.48 7.96-7.73 7.96h-4.25v11.18c0 3.2 2.57 5.86 5.7 5.86h10.83v-4.38c0-4.38 3.47-7.97 7.73-7.97 4.25 0 7.67 3.58 7.67 7.96v4.38h10.84c3.17 0 5.75-2.65 5.75-5.86v-11.8h4.24c3.96 0 7.13-3.27 7.13-7.34 0-4.02-3.17-7.35-7.13-7.35z" stroke="#000" stroke-opacity="0" stroke-width="1.74" fill="#fff"/><path d="M340 446c0-3.3 2.7-6 6-6h408c3.3 0 6 2.7 6 6v208c0 3.3-2.7 6-6 6H346c-3.3 0-6-2.7-6-6z" stroke="#5e5e5e" stroke-width="3" fill="#fff"/><use xlink:href="#f" transform="matrix(1,0,0,1,345,445) translate(0 209.89653333333334)"/><use xlink:href="#g" transform="matrix(1,0,0,1,345,445) translate(69.4074074074074 209.89653333333334)"/><path d="M340 186c0-3.3 2.7-6 6-6h408c3.3 0 6 2.7 6 6v208c0 3.3-2.7 6-6 6H346c-3.3 0-6-2.7-6-6z" stroke="#5e5e5e" stroke-width="3" fill="#fff"/><use xlink:href="#f" transform="matrix(1,0,0,1,345,185) translate(0 209.89653333333334)"/><use xlink:href="#g" transform="matrix(1,0,0,1,345,185) translate(69.4074074074074 209.89653333333334)"/><path d="M691.1 243.17c-1.15.1-2.06.34-2.97.8L648.7 263.4c-2.17 1.02-3.65 2.84-4.1 5.23l-9.78 43.76c-.46 2.04-.12 4.08 1.02 5.9.1.23.23.34.45.57l27.28 35c1.47 1.94 3.52 2.97 5.9 2.97h43.9c2.37 0 4.42-1.03 5.9-2.96l27.28-35c1.48-1.94 2.05-4.2 1.48-6.6l-9.78-43.65c-.45-2.4-1.93-4.2-4.1-5.23l-39.44-19.44c-1.25-.57-2.38-.9-3.63-.8z" stroke="#000" stroke-opacity="0" stroke-width="3.83" fill="#326ce5"/><path d="M691.07 240c-1.2.12-2.16.36-3.12.84l-41.64 20.52c-2.27 1.08-3.83 3-4.3 5.52l-10.33 46.2c-.48 2.16-.12 4.32 1.08 6.24.12.24.24.36.48.6l28.8 36.96c1.56 2.04 3.72 3.12 6.24 3.12h46.32c2.5 0 4.67-1.08 6.23-3.12l28.8-36.96c1.56-2.04 2.16-4.44 1.56-6.84l-10.33-46.2c-.48-2.52-2.04-4.44-4.32-5.52l-41.64-20.52c-1.3-.6-2.5-.96-3.83-.84zm0 3.24c1.32-.12 2.4.12 3.6.72l39.6 19.44c2.04 1.08 3.48 2.88 4.08 5.28l9.72 43.68c.48 2.4 0 4.56-1.44 6.48l-27.36 35.04c-1.44 1.92-3.48 3-5.88 3h-43.93c-2.4 0-4.44-1.08-5.88-3l-27.37-35.04c-.12-.12-.24-.36-.36-.6-1.2-1.8-1.56-3.72-1.08-5.88l9.7-43.68c.6-2.4 1.93-4.2 4.1-5.28l39.6-19.44c.95-.48 1.8-.72 2.87-.84z" stroke="#000" stroke-opacity="0" stroke-width="3.83" fill="#fff"/><path d="M671.03 345.58c-.3.66-.7 1.12-1.2 1.4-.52.3-1.14.43-1.9.43-1.23 0-2.16-.43-2.75-1.3-.6-.86-.88-2.18-.88-3.94 0-3.57 1.2-5.35 3.64-5.35.76 0 1.38.16 1.9.44.5.28.9.74 1.2 1.35v-5.4h1.64v11.9c0 1.08.03 1.8.06 2.13h-1.58c-.02-.1-.03-.34-.06-.7l-.03-.95zm-5-3.48c0 1.44.18 2.46.55 3.07.37.62.96.94 1.8.94.92 0 1.6-.33 2.02-1 .42-.67.63-1.7.63-3.1 0-1.36-.2-2.36-.63-2.98-.42-.63-1.1-.96-2.02-.96-.82 0-1.42.33-1.8.97-.37.63-.55 1.65-.55 3.07zM676.5 342.48c0 1.16.22 2.08.7 2.7.46.65 1.15.97 2.06.97.7 0 1.28-.15 1.72-.45.43-.3.72-.67.87-1.12l1.45.42c-.6 1.6-1.94 2.42-4.04 2.42-1.47 0-2.6-.45-3.36-1.35-.76-.9-1.14-2.25-1.14-4.02 0-1.68.38-3 1.14-3.9.77-.9 1.87-1.33 3.3-1.33 2.9 0 4.36 1.8 4.36 5.42v.24zm5.36-1.3c-.1-1.1-.36-1.87-.8-2.36-.44-.5-1.07-.74-1.9-.74-.8 0-1.44.27-1.9.82-.47.56-.72 1.3-.75 2.27zM694.06 342.07c0 3.56-1.2 5.35-3.65 5.35-1.5 0-2.54-.6-3.07-1.8h-.04c.02.07.02.6.02 1.63v4h-1.64v-12.17c0-1.05-.03-1.74-.06-2.1h1.6l.02.3c.02.15.03.38.04.7l.03.66h.04c.3-.62.7-1.08 1.17-1.37.5-.3 1.12-.45 1.9-.45 1.24 0 2.15.42 2.75 1.27.6.83.9 2.15.9 3.97zm-1.73.03c0-1.42-.18-2.44-.56-3.05-.38-.62-.97-.92-1.78-.92-.67 0-1.17.15-1.54.43-.38.28-.65.73-.85 1.33-.18.58-.28 1.38-.28 2.33 0 1.35.22 2.33.63 2.97.4.63 1.1.95 2.03.95.8 0 1.4-.3 1.78-.92.38-.62.57-1.66.57-3.13zM696.12 347.23V333.2h1.65v14.03zM708.7 342.1c0 1.8-.4 3.13-1.15 4-.77.88-1.88 1.32-3.34 1.32-1.43 0-2.52-.46-3.27-1.36-.73-.92-1.1-2.24-1.1-3.96 0-3.53 1.48-5.3 4.44-5.3 1.52 0 2.63.45 3.35 1.3.7.87 1.07 2.2 1.07 4zm-1.74 0c0-1.4-.2-2.43-.62-3.07-.4-.64-1.08-.95-2.04-.95s-1.67.3-2.1.97c-.43.65-.65 1.67-.65 3.05 0 1.35.22 2.37.64 3.05.42.68 1.1 1 2 1 1 0 1.7-.3 2.1-.97.44-.66.66-1.7.66-3.08zM711.23 351.24c-.44 0-.82-.03-1.13-.1v-1.28c.23.04.5.05.77.05 1.02 0 1.84-.77 2.44-2.32l.17-.4-3.94-10.18h1.76l2.08 5.65.1.32c.05.12.2.54.42 1.23.24.7.36 1.1.38 1.17l.64-1.86 2.18-6.5h1.74l-3.82 10.22c-.4 1.1-.8 1.9-1.14 2.44-.36.53-.75.92-1.2 1.18-.4.27-.9.4-1.45.4z" stroke="#000" stroke-opacity="0" fill="#fff"/><path d="M688.5 326.08c-16.25.8-30.08-12.07-30.9-28.78-.9-16.76 11.52-31.1 27.77-32.07 16.24-.97 30.2 11.7 31.25 28.48l-11.7.8c-.65-10.12-9.04-17.8-18.84-17.2-9.8.55-17.32 9.2-16.78 19.33.47 10.12 8.86 17.87 18.67 17.44z" stroke="#000" stroke-opacity="0" stroke-width="3.77" fill="#fff"/><path d="M694.57 293.72l9.3 23.46 21.45-23.46z" stroke="#000" stroke-opacity="0" stroke-width="3.77" fill="#fff"/><path d="M399.66 203.17c-1.14.1-2.05.34-2.96.8l-39.44 19.43c-2.16 1.02-3.64 2.84-4.1 5.23l-9.77 43.76c-.47 2.04-.13 4.08 1 5.9.13.23.24.34.47.57l27.28 35c1.48 1.94 3.52 2.97 5.9 2.97h43.9c2.38 0 4.42-1.03 5.9-2.96l27.28-35c1.48-1.94 2.05-4.2 1.48-6.6l-9.77-43.65c-.45-2.4-1.93-4.2-4.1-5.23l-39.43-19.44c-1.25-.57-2.4-.9-3.64-.8z" stroke="#000" stroke-opacity="0" stroke-width="3.83" fill="#326ce5"/><path d="M399.64 200c-1.2.12-2.16.36-3.12.84l-41.64 20.52c-2.28 1.08-3.84 3-4.32 5.52l-10.32 46.2c-.48 2.16-.12 4.32 1.08 6.24.12.24.24.36.48.6l28.8 36.96c1.56 2.04 3.72 3.12 6.24 3.12h46.32c2.52 0 4.68-1.08 6.24-3.12l28.8-36.96c1.56-2.04 2.16-4.44 1.56-6.84l-10.32-46.2c-.48-2.52-2.04-4.44-4.32-5.52l-41.64-20.52c-1.32-.6-2.52-.96-3.84-.84zm0 3.24c1.32-.12 2.4.12 3.6.72l39.6 19.44c2.04 1.08 3.48 2.88 4.08 5.28l9.72 43.68c.48 2.4 0 4.56-1.44 6.48l-27.36 35.04c-1.44 1.92-3.48 3-5.88 3h-43.92c-2.4 0-4.44-1.08-5.88-3l-27.36-35.04c-.12-.12-.24-.36-.36-.6-1.2-1.8-1.56-3.72-1.08-5.88l9.72-43.68c.6-2.4 1.92-4.2 4.08-5.28l39.6-19.44c.96-.48 1.8-.72 2.88-.84z" stroke="#000" stroke-opacity="0" stroke-width="3.83" fill="#fff"/><path d="M394.02 302.07c0 3.56-1.2 5.35-3.64 5.35-1.53 0-2.56-.6-3.08-1.8h-.05c.03.07.04.6.04 1.63v4h-1.66v-12.17c0-1.05-.02-1.74-.06-2.1h1.6l.02.3.05.7.02.66h.03c.3-.62.7-1.08 1.17-1.37.48-.3 1.1-.45 1.9-.45 1.23 0 2.14.42 2.74 1.27.62.83.92 2.15.92 3.97zm-1.73.03c0-1.42-.2-2.44-.56-3.05-.38-.62-.97-.92-1.78-.92-.66 0-1.17.15-1.54.43-.37.28-.65.73-.85 1.33-.2.58-.28 1.38-.28 2.33 0 1.35.2 2.33.6 2.97.43.63 1.1.95 2.04.95.82 0 1.4-.3 1.78-.92.38-.62.57-1.66.57-3.13zM404.48 302.1c0 1.8-.4 3.13-1.15 4-.76.88-1.88 1.32-3.33 1.32-1.45 0-2.54-.46-3.28-1.36-.74-.92-1.1-2.24-1.1-3.96 0-3.53 1.47-5.3 4.44-5.3 1.52 0 2.63.45 3.34 1.3.72.87 1.08 2.2 1.08 4zm-1.73 0c0-1.4-.22-2.43-.62-3.07-.4-.64-1.08-.95-2.04-.95-.98 0-1.68.3-2.1.97-.44.65-.66 1.67-.66 3.05 0 1.35.2 2.37.64 3.05.42.68 1.1 1 2 1 1 0 1.7-.3 2.12-.97.43-.66.65-1.7.65-3.08zM412.8 305.58c-.3.66-.7 1.12-1.22 1.4-.5.3-1.13.43-1.87.43-1.24 0-2.17-.43-2.76-1.3-.58-.86-.88-2.18-.88-3.94 0-3.57 1.22-5.35 3.65-5.35.76 0 1.38.16 1.9.44.5.28.9.74 1.2 1.35v-5.4h1.64v11.9c0 1.08.03 1.8.06 2.13h-1.58l-.06-.7c0-.37-.03-.68-.03-.95zm-5-3.48c0 1.44.18 2.46.54 3.07.37.62.96.94 1.8.94.93 0 1.6-.33 2.02-1 .43-.67.64-1.7.64-3.1 0-1.36-.2-2.36-.64-2.98-.42-.63-1.1-.96-2-.96-.84 0-1.44.33-1.82.97-.36.63-.55 1.65-.55 3.07z" stroke="#000" stroke-opacity="0" fill="#fff"/><path d="M375.92 240.2L400 233l24.1 7.2-24.1 7.2zM375.92 242.95v26.4l22.43 12.83.12-32.32zM424.08 242.95v26.4l-22.44 12.83-.1-32.32z" stroke="#000" stroke-opacity="0" stroke-width="3.77" fill="#fff"/><path d="M419.66 223.17c-1.14.1-2.05.34-2.96.8l-39.44 19.43c-2.16 1.02-3.64 2.84-4.1 5.23l-9.77 43.76c-.47 2.04-.13 4.08 1 5.9.13.23.24.34.47.57l27.28 35c1.48 1.94 3.52 2.97 5.9 2.97h43.9c2.38 0 4.42-1.03 5.9-2.96l27.28-35c1.48-1.94 2.05-4.2 1.48-6.6l-9.77-43.65c-.45-2.4-1.93-4.2-4.1-5.23l-39.43-19.44c-1.25-.57-2.4-.9-3.64-.8z" stroke="#000" stroke-opacity="0" stroke-width="3.83" fill="#326ce5"/><path d="M419.64 220c-1.2.12-2.16.36-3.12.84l-41.64 20.52c-2.28 1.08-3.84 3-4.32 5.52l-10.32 46.2c-.48 2.16-.12 4.32 1.08 6.24.12.24.24.36.48.6l28.8 36.96c1.56 2.04 3.72 3.12 6.24 3.12h46.32c2.52 0 4.68-1.08 6.24-3.12l28.8-36.96c1.56-2.04 2.16-4.44 1.56-6.84l-10.32-46.2c-.48-2.52-2.04-4.44-4.32-5.52l-41.64-20.52c-1.32-.6-2.52-.96-3.84-.84zm0 3.24c1.32-.12 2.4.12 3.6.72l39.6 19.44c2.04 1.08 3.48 2.88 4.08 5.28l9.72 43.68c.48 2.4 0 4.56-1.44 6.48l-27.36 35.04c-1.44 1.92-3.48 3-5.88 3h-43.92c-2.4 0-4.44-1.08-5.88-3l-27.36-35.04c-.12-.12-.24-.36-.36-.6-1.2-1.8-1.56-3.72-1.08-5.88l9.72-43.68c.6-2.4 1.92-4.2 4.08-5.28l39.6-19.44c.96-.48 1.8-.72 2.88-.84z" stroke="#000" stroke-opacity="0" stroke-width="3.83" fill="#fff"/><path d="M414.02 322.07c0 3.56-1.2 5.35-3.64 5.35-1.53 0-2.56-.6-3.08-1.8h-.05c.03.07.04.6.04 1.63v4h-1.66v-12.17c0-1.05-.02-1.74-.06-2.1h1.6l.02.3.05.7.02.66h.03c.3-.62.7-1.08 1.17-1.37.48-.3 1.1-.45 1.9-.45 1.23 0 2.14.42 2.74 1.27.62.83.92 2.15.92 3.97zm-1.73.03c0-1.42-.2-2.44-.56-3.05-.38-.62-.97-.92-1.78-.92-.66 0-1.17.15-1.54.43-.37.28-.65.73-.85 1.33-.2.58-.28 1.38-.28 2.33 0 1.35.2 2.33.6 2.97.43.63 1.1.95 2.04.95.82 0 1.4-.3 1.78-.92.38-.62.57-1.66.57-3.13zM424.48 322.1c0 1.8-.4 3.13-1.15 4-.76.88-1.88 1.32-3.33 1.32-1.45 0-2.54-.46-3.28-1.36-.74-.92-1.1-2.24-1.1-3.96 0-3.53 1.47-5.3 4.44-5.3 1.52 0 2.63.45 3.34 1.3.72.87 1.08 2.2 1.08 4zm-1.73 0c0-1.4-.22-2.43-.62-3.07-.4-.64-1.08-.95-2.04-.95-.98 0-1.68.3-2.1.97-.44.65-.66 1.67-.66 3.05 0 1.35.2 2.37.64 3.05.42.68 1.1 1 2 1 1 0 1.7-.3 2.12-.97.43-.66.65-1.7.65-3.08zM432.8 325.58c-.3.66-.7 1.12-1.22 1.4-.5.3-1.13.43-1.87.43-1.24 0-2.17-.43-2.76-1.3-.58-.86-.88-2.18-.88-3.94 0-3.57 1.22-5.35 3.65-5.35.76 0 1.38.16 1.9.44.5.28.9.74 1.2 1.35v-5.4h1.64v11.9c0 1.08.03 1.8.06 2.13h-1.58l-.06-.7c0-.37-.03-.68-.03-.95zm-5-3.48c0 1.44.18 2.46.54 3.07.37.62.96.94 1.8.94.93 0 1.6-.33 2.02-1 .43-.67.64-1.7.64-3.1 0-1.36-.2-2.36-.64-2.98-.42-.63-1.1-.96-2-.96-.84 0-1.44.33-1.82.97-.36.63-.55 1.65-.55 3.07z" stroke="#000" stroke-opacity="0" fill="#fff"/><path d="M395.92 260.2L420 253l24.1 7.2-24.1 7.2zM395.92 262.95v26.4l22.43 12.83.12-32.32zM444.08 262.95v26.4l-22.44 12.83-.1-32.32z" stroke="#000" stroke-opacity="0" stroke-width="3.77" fill="#fff"/><path d="M439.66 243.17c-1.14.1-2.05.34-2.96.8l-39.44 19.43c-2.16 1.02-3.64 2.84-4.1 5.23l-9.77 43.76c-.47 2.04-.13 4.08 1 5.9.13.23.24.34.47.57l27.28 35c1.48 1.94 3.52 2.97 5.9 2.97h43.9c2.38 0 4.42-1.03 5.9-2.96l27.28-35c1.48-1.94 2.05-4.2 1.48-6.6l-9.77-43.65c-.45-2.4-1.93-4.2-4.1-5.23l-39.43-19.44c-1.25-.57-2.4-.9-3.64-.8z" stroke="#000" stroke-opacity="0" stroke-width="3.83" fill="#326ce5"/><path d="M439.64 240c-1.2.12-2.16.36-3.12.84l-41.64 20.52c-2.28 1.08-3.84 3-4.32 5.52l-10.32 46.2c-.48 2.16-.12 4.32 1.08 6.24.12.24.24.36.48.6l28.8 36.96c1.56 2.04 3.72 3.12 6.24 3.12h46.32c2.52 0 4.68-1.08 6.24-3.12l28.8-36.96c1.56-2.04 2.16-4.44 1.56-6.84l-10.32-46.2c-.48-2.52-2.04-4.44-4.32-5.52l-41.64-20.52c-1.32-.6-2.52-.96-3.84-.84zm0 3.24c1.32-.12 2.4.12 3.6.72l39.6 19.44c2.04 1.08 3.48 2.88 4.08 5.28l9.72 43.68c.48 2.4 0 4.56-1.44 6.48l-27.36 35.04c-1.44 1.92-3.48 3-5.88 3h-43.92c-2.4 0-4.44-1.08-5.88-3l-27.36-35.04c-.12-.12-.24-.36-.36-.6-1.2-1.8-1.56-3.72-1.08-5.88l9.72-43.68c.6-2.4 1.92-4.2 4.08-5.28l39.6-19.44c.96-.48 1.8-.72 2.88-.84z" stroke="#000" stroke-opacity="0" stroke-width="3.83" fill="#fff"/><path d="M434.02 342.07c0 3.56-1.2 5.35-3.64 5.35-1.53 0-2.56-.6-3.08-1.8h-.05c.03.07.04.6.04 1.63v4h-1.66v-12.17c0-1.05-.02-1.74-.06-2.1h1.6l.02.3.05.7.02.66h.03c.3-.62.7-1.08 1.17-1.37.48-.3 1.1-.45 1.9-.45 1.23 0 2.14.42 2.74 1.27.62.83.92 2.15.92 3.97zm-1.73.03c0-1.42-.2-2.44-.56-3.05-.38-.62-.97-.92-1.78-.92-.66 0-1.17.15-1.54.43-.37.28-.65.73-.85 1.33-.2.58-.28 1.38-.28 2.33 0 1.35.2 2.33.6 2.97.43.63 1.1.95 2.04.95.82 0 1.4-.3 1.78-.92.38-.62.57-1.66.57-3.13zM444.48 342.1c0 1.8-.4 3.13-1.15 4-.76.88-1.88 1.32-3.33 1.32-1.45 0-2.54-.46-3.28-1.36-.74-.92-1.1-2.24-1.1-3.96 0-3.53 1.47-5.3 4.44-5.3 1.52 0 2.63.45 3.34 1.3.72.87 1.08 2.2 1.08 4zm-1.73 0c0-1.4-.22-2.43-.62-3.07-.4-.64-1.08-.95-2.04-.95-.98 0-1.68.3-2.1.97-.44.65-.66 1.67-.66 3.05 0 1.35.2 2.37.64 3.05.42.68 1.1 1 2 1 1 0 1.7-.3 2.12-.97.43-.66.65-1.7.65-3.08zM452.8 345.58c-.3.66-.7 1.12-1.22 1.4-.5.3-1.13.43-1.87.43-1.24 0-2.17-.43-2.76-1.3-.58-.86-.88-2.18-.88-3.94 0-3.57 1.22-5.35 3.65-5.35.76 0 1.38.16 1.9.44.5.28.9.74 1.2 1.35v-5.4h1.64v11.9c0 1.08.03 1.8.06 2.13h-1.58l-.06-.7c0-.37-.03-.68-.03-.95zm-5-3.48c0 1.44.18 2.46.54 3.07.37.62.96.94 1.8.94.93 0 1.6-.33 2.02-1 .43-.67.64-1.7.64-3.1 0-1.36-.2-2.36-.64-2.98-.42-.63-1.1-.96-2-.96-.84 0-1.44.33-1.82.97-.36.63-.55 1.65-.55 3.07z" stroke="#000" stroke-opacity="0" fill="#fff"/><path d="M415.92 280.2L440 273l24.1 7.2-24.1 7.2zM415.92 282.95v26.4l22.43 12.83.12-32.32zM464.08 282.95v26.4l-22.44 12.83-.1-32.32z" stroke="#000" stroke-opacity="0" stroke-width="3.77" fill="#fff"/><path d="M633.6 300H515.33" stroke="#5e5e5e" stroke-width="2" fill="none"/><path d="M634.37 301h-.8v-2h1.24z" fill="#5e5e5e"/><path d="M500.07 300l14.27-4.64v9.28z" stroke="#5e5e5e" stroke-width="2" fill="#5e5e5e"/><path d="M675.37 493.17c-1.13.1-2.04.34-2.95.8l-39.45 19.43c-2.16 1.02-3.64 2.84-4.1 5.23l-9.77 43.76c-.45 2.04-.1 4.08 1.03 5.9.1.23.22.34.45.57l27.28 35c1.48 1.94 3.53 2.97 5.9 2.97h43.9c2.38 0 4.43-1.03 5.9-2.96l27.3-35c1.46-1.94 2.03-4.2 1.46-6.6l-9.77-43.65c-.46-2.4-1.93-4.2-4.1-5.23l-39.44-19.44c-1.24-.57-2.38-.9-3.63-.8z" stroke="#000" stroke-opacity="0" stroke-width="3.83" fill="#326ce5"/><path d="M675.35 490c-1.2.12-2.16.36-3.12.84l-41.64 20.52c-2.3 1.08-3.85 3-4.33 5.52l-10.32 46.2c-.48 2.16-.12 4.32 1.08 6.24.12.24.24.36.48.6l28.8 36.96c1.57 2.04 3.73 3.12 6.25 3.12h46.32c2.52 0 4.68-1.08 6.24-3.12l28.8-36.96c1.57-2.04 2.17-4.44 1.57-6.84l-10.32-46.2c-.48-2.52-2.04-4.44-4.32-5.52l-41.64-20.52c-1.33-.6-2.53-.96-3.85-.84zm0 3.24c1.32-.12 2.4.12 3.6.72l39.6 19.44c2.04 1.08 3.48 2.88 4.08 5.28l9.72 43.68c.48 2.4 0 4.56-1.44 6.48l-27.35 35.04c-1.44 1.92-3.48 3-5.88 3h-43.92c-2.4 0-4.44-1.08-5.88-3l-27.36-35.04c-.1-.12-.23-.36-.35-.6-1.2-1.8-1.56-3.72-1.08-5.88l9.72-43.68c.6-2.4 1.9-4.2 4.07-5.28l39.6-19.44c.96-.48 1.8-.72 2.88-.84z" stroke="#000" stroke-opacity="0" stroke-width="3.83" fill="#fff"/><path d="M655.32 595.58c-.3.66-.7 1.12-1.22 1.4-.5.3-1.13.43-1.87.43-1.25 0-2.18-.43-2.77-1.3-.58-.86-.88-2.18-.88-3.94 0-3.57 1.22-5.35 3.65-5.35.75 0 1.38.16 1.88.44s.92.74 1.22 1.35h.02l-.02-1.15v-4.25h1.65v11.9c0 1.08.02 1.8.06 2.13h-1.58c-.02-.1-.04-.34-.06-.7-.04-.37-.05-.68-.05-.95zm-5-3.48c0 1.44.18 2.46.54 3.07.37.62.97.94 1.8.94.93 0 1.6-.33 2.03-1 .4-.67.62-1.7.62-3.1 0-1.36-.2-2.36-.63-2.98-.44-.63-1.1-.96-2.03-.96-.83 0-1.43.33-1.8.97-.37.63-.56 1.65-.56 3.07zM660.78 592.48c0 1.16.23 2.08.7 2.7.47.65 1.16.97 2.06.97.72 0 1.3-.15 1.72-.45.43-.3.72-.67.87-1.12l1.46.42c-.6 1.6-1.95 2.42-4.06 2.42-1.47 0-2.6-.45-3.35-1.35-.78-.9-1.16-2.25-1.16-4.02 0-1.68.38-3 1.15-3.9.75-.9 1.85-1.33 3.28-1.33 2.92 0 4.37 1.8 4.37 5.42v.24zm5.36-1.3c-.1-1.1-.35-1.87-.8-2.36-.43-.5-1.07-.74-1.88-.74-.8 0-1.45.27-1.92.82-.46.56-.7 1.3-.75 2.27zM678.35 592.07c0 3.56-1.22 5.35-3.65 5.35-1.53 0-2.56-.6-3.08-1.8h-.04c.02.07.03.6.03 1.63v4h-1.64v-12.17c0-1.05-.02-1.74-.05-2.1h1.6l.03.3.04.7.02.66h.03c.3-.62.68-1.08 1.16-1.37.47-.3 1.1-.45 1.9-.45 1.22 0 2.14.42 2.74 1.27.6.83.9 2.15.9 3.97zm-1.73.03c0-1.42-.2-2.44-.56-3.05-.38-.62-.97-.92-1.78-.92-.66 0-1.17.15-1.54.43-.37.28-.65.73-.84 1.33-.2.58-.3 1.38-.3 2.33 0 1.35.22 2.33.64 2.97.4.63 1.08.95 2.02.95.82 0 1.4-.3 1.78-.92.38-.62.58-1.66.58-3.13zM680.4 597.23V583.2h1.66v14.03zM692.97 592.1c0 1.8-.38 3.13-1.14 4-.76.88-1.88 1.32-3.33 1.32-1.45 0-2.54-.46-3.28-1.36-.74-.92-1.1-2.24-1.1-3.96 0-3.53 1.47-5.3 4.44-5.3 1.52 0 2.62.45 3.34 1.3.72.87 1.07 2.2 1.07 4zm-1.72 0c0-1.4-.22-2.43-.62-3.07-.4-.64-1.1-.95-2.04-.95-.98 0-1.68.3-2.1.97-.44.65-.66 1.67-.66 3.05 0 1.35.2 2.37.64 3.05.42.68 1.1 1 2 1 1 0 1.7-.3 2.12-.97.42-.66.65-1.7.65-3.08zM695.52 601.24c-.45 0-.83-.03-1.14-.1v-1.28c.24.04.5.05.78.05 1.02 0 1.84-.77 2.43-2.32l.15-.4-3.93-10.18h1.76l2.1 5.65c.02.1.05.2.1.32l.4 1.23c.24.7.36 1.1.38 1.17l.64-1.86 2.18-6.5h1.74l-3.8 10.22c-.42 1.1-.8 1.9-1.16 2.44-.35.53-.74.92-1.18 1.18-.43.27-.9.4-1.46.4z" stroke="#000" stroke-opacity="0" fill="#fff"/><path d="M672.78 576.08c-16.24.8-30.07-12.07-30.9-28.78-.88-16.76 11.52-31.1 27.77-32.07 16.25-.97 30.2 11.7 31.26 28.48l-11.7.8c-.64-10.12-9.03-17.8-18.84-17.2-9.8.55-17.3 9.2-16.78 19.33.47 10.12 8.86 17.87 18.67 17.44z" stroke="#000" stroke-opacity="0" stroke-width="3.77" fill="#fff"/><path d="M678.85 543.72l9.3 23.46 21.46-23.46z" stroke="#000" stroke-opacity="0" stroke-width="3.77" fill="#fff"/><path d="M423.94 493.17c-1.13.1-2.04.34-2.95.8l-39.46 19.43c-2.16 1.02-3.64 2.84-4.1 5.23l-9.77 43.76c-.45 2.04-.1 4.08 1.03 5.9.1.23.22.34.45.57l27.28 35c1.48 1.94 3.53 2.97 5.92 2.97h43.87c2.4 0 4.44-1.03 5.92-2.96l27.28-35c1.48-1.94 2.04-4.2 1.48-6.6l-9.78-43.65c-.46-2.4-1.93-4.2-4.1-5.23l-39.44-19.44c-1.25-.57-2.4-.9-3.64-.8z" stroke="#000" stroke-opacity="0" stroke-width="3.83" fill="#326ce5"/><path d="M423.93 490c-1.2.12-2.16.36-3.12.84l-41.63 20.52c-2.28 1.08-3.84 3-4.32 5.52l-10.32 46.2c-.48 2.16-.12 4.32 1.08 6.24.13.24.25.36.5.6l28.8 36.96c1.55 2.04 3.7 3.12 6.23 3.12h46.32c2.52 0 4.68-1.08 6.24-3.12l28.8-36.96c1.55-2.04 2.15-4.44 1.55-6.84l-10.32-46.2c-.48-2.52-2.04-4.44-4.32-5.52l-41.63-20.52c-1.32-.6-2.52-.96-3.84-.84zm0 3.24c1.32-.12 2.4.12 3.6.72l39.6 19.44c2.04 1.08 3.48 2.88 4.08 5.28l9.73 43.68c.48 2.4 0 4.56-1.44 6.48l-27.37 35.04c-1.44 1.92-3.48 3-5.88 3h-43.92c-2.4 0-4.44-1.08-5.88-3l-27.36-35.04c-.13-.12-.25-.36-.37-.6-1.2-1.8-1.56-3.72-1.08-5.88l9.72-43.68c.6-2.4 1.92-4.2 4.08-5.28l39.6-19.44c.96-.48 1.8-.72 2.88-.84z" stroke="#000" stroke-opacity="0" stroke-width="3.83" fill="#fff"/><path d="M418.3 592.07c0 3.56-1.2 5.35-3.64 5.35-1.52 0-2.55-.6-3.08-1.8h-.04c.02.07.03.6.03 1.63v4h-1.64v-12.17c0-1.05-.03-1.74-.06-2.1h1.6l.02.3c0 .15 0 .38.03.7l.03.66h.03c.3-.62.67-1.08 1.16-1.37.48-.3 1.1-.45 1.9-.45 1.23 0 2.14.42 2.74 1.27.6.83.9 2.15.9 3.97zm-1.72.03c0-1.42-.2-2.44-.56-3.05-.38-.62-.97-.92-1.78-.92-.66 0-1.16.15-1.54.43-.37.28-.65.73-.84 1.33-.2.58-.3 1.38-.3 2.33 0 1.35.22 2.33.64 2.97.4.63 1.1.95 2.02.95.82 0 1.4-.3 1.8-.92.37-.62.56-1.66.56-3.13zM428.76 592.1c0 1.8-.38 3.13-1.14 4-.76.88-1.88 1.32-3.33 1.32-1.46 0-2.55-.46-3.3-1.36-.73-.92-1.1-2.24-1.1-3.96 0-3.53 1.48-5.3 4.45-5.3 1.5 0 2.62.45 3.34 1.3.7.87 1.06 2.2 1.06 4zm-1.73 0c0-1.4-.2-2.43-.62-3.07-.4-.64-1.07-.95-2.03-.95-.96 0-1.66.3-2.1.97-.42.65-.64 1.67-.64 3.05 0 1.35.2 2.37.63 3.05.43.68 1.1 1 2 1 1 0 1.7-.3 2.13-.97.4-.66.63-1.7.63-3.08zM437.08 595.58c-.3.66-.7 1.12-1.2 1.4-.52.3-1.14.43-1.9.43-1.24 0-2.17-.43-2.76-1.3-.58-.86-.87-2.18-.87-3.94 0-3.57 1.2-5.35 3.64-5.35.74 0 1.37.16 1.88.44.5.28.9.74 1.2 1.35h.02l-.02-1.15v-4.25h1.65v11.9c0 1.08.02 1.8.06 2.13h-1.6l-.05-.7-.03-.95zm-5-3.48c0 1.44.18 2.46.54 3.07.38.62.97.94 1.8.94.93 0 1.6-.33 2.03-1 .42-.67.63-1.7.63-3.1 0-1.36-.2-2.36-.63-2.98-.42-.63-1.1-.96-2.02-.96-.83 0-1.43.33-1.8.97-.37.63-.55 1.65-.55 3.07z" stroke="#000" stroke-opacity="0" fill="#fff"/><path d="M400.2 530.2l24.1-7.2 24.07 7.2-24.08 7.2zM400.2 532.95v26.4l22.44 12.83.1-32.32zM448.37 532.95v26.4l-22.44 12.83-.1-32.32z" stroke="#000" stroke-opacity="0" stroke-width="3.77" fill="#fff"/><path d="M617.88 550H499.63" stroke="#5e5e5e" stroke-width="2" fill="none"/><path d="M618.65 551h-.8v-2h1.25z" fill="#5e5e5e"/><path d="M484.36 550l14.27-4.64v9.28z" stroke="#5e5e5e" stroke-width="2" fill="#5e5e5e"/><path d="M820 126c0-3.3 2.7-6 6-6h508c3.3 0 6 2.7 6 6v988c0 3.3-2.7 6-6 6H826c-3.3 0-6-2.7-6-6z" stroke="#5e5e5e" stroke-width="3" fill="#ffdba9"/><use xlink:href="#a" transform="matrix(1,0,0,1,825,125) translate(0 989.9580999111113)"/><use xlink:href="#h" transform="matrix(1,0,0,1,825,125) translate(177.90740740740742 989.9580999111113)"/><path d="M880 696c0-3.3 2.7-6 6-6h408c3.3 0 6 2.7 6 6v208c0 3.3-2.7 6-6 6H886c-3.3 0-6-2.7-6-6z" stroke="#5e5e5e" stroke-width="3" fill="#fff"/><use xlink:href="#i" transform="matrix(1,0,0,1,885,695) translate(0 209.89653333333334)"/><use xlink:href="#j" transform="matrix(1,0,0,1,885,695) translate(97.62962962962962 209.89653333333334)"/><path d="M880 186c0-3.3 2.7-6 6-6h408c3.3 0 6 2.7 6 6v208c0 3.3-2.7 6-6 6H886c-3.3 0-6-2.7-6-6z" stroke="#5e5e5e" stroke-width="3" fill="#fff"/><use xlink:href="#k" transform="matrix(1,0,0,1,885,185) translate(0 209.89653333333334)"/><use xlink:href="#l" transform="matrix(1,0,0,1,885,185) translate(79.85185185185185 209.89653333333334)"/><use xlink:href="#m" transform="matrix(1,0,0,1,885,185) translate(177.48148148148147 209.89653333333334)"/><path d="M880 446c0-3.3 2.7-6 6-6h408c3.3 0 6 2.7 6 6v208c0 3.3-2.7 6-6 6H886c-3.3 0-6-2.7-6-6z" stroke="#5e5e5e" stroke-width="3" fill="#fff"/><use xlink:href="#k" transform="matrix(1,0,0,1,885,445) translate(0 209.89653333333334)"/><use xlink:href="#n" transform="matrix(1,0,0,1,885,445) translate(79.85185185185185 209.89653333333334)"/><use xlink:href="#o" transform="matrix(1,0,0,1,885,445) translate(137.48148148148147 209.89653333333334)"/><path d="M959.66 493.17c-1.14.1-2.05.34-2.96.8l-39.44 19.43c-2.16 1.02-3.64 2.84-4.1 5.23l-9.77 43.76c-.47 2.04-.13 4.08 1 5.9.13.23.24.34.47.57l27.28 35c1.48 1.94 3.52 2.97 5.9 2.97h43.9c2.38 0 4.42-1.03 5.9-2.96l27.28-35c1.48-1.94 2.05-4.2 1.48-6.6l-9.77-43.65c-.45-2.4-1.93-4.2-4.1-5.23l-39.43-19.44c-1.25-.57-2.4-.9-3.64-.8z" stroke="#000" stroke-opacity="0" stroke-width="3.83" fill="#326ce5"/><path d="M959.64 490c-1.2.12-2.16.36-3.12.84l-41.64 20.52c-2.28 1.08-3.84 3-4.32 5.52l-10.32 46.2c-.48 2.16-.12 4.32 1.08 6.24.12.24.24.36.48.6l28.8 36.96c1.56 2.04 3.72 3.12 6.24 3.12h46.32c2.52 0 4.68-1.08 6.24-3.12l28.8-36.96c1.56-2.04 2.16-4.44 1.56-6.84l-10.32-46.2c-.48-2.52-2.04-4.44-4.32-5.52l-41.64-20.52c-1.32-.6-2.52-.96-3.84-.84zm0 3.24c1.32-.12 2.4.12 3.6.72l39.6 19.44c2.04 1.08 3.48 2.88 4.08 5.28l9.72 43.68c.48 2.4 0 4.56-1.44 6.48l-27.36 35.04c-1.44 1.92-3.48 3-5.88 3h-43.92c-2.4 0-4.44-1.08-5.88-3l-27.36-35.04c-.12-.12-.24-.36-.36-.6-1.2-1.8-1.56-3.72-1.08-5.88l9.72-43.68c.6-2.4 1.92-4.2 4.08-5.28l39.6-19.44c.96-.48 1.8-.72 2.88-.84z" stroke="#000" stroke-opacity="0" stroke-width="3.83" fill="#fff"/><path d="M939.6 595.58c-.3.66-.7 1.12-1.2 1.4-.52.3-1.14.43-1.88.43-1.25 0-2.18-.43-2.77-1.3-.6-.86-.88-2.18-.88-3.94 0-3.57 1.2-5.35 3.65-5.35.75 0 1.37.16 1.88.44.5.28.9.74 1.2 1.35h.02v-5.4h1.63v11.9c0 1.08.03 1.8.06 2.13h-1.57l-.06-.7-.03-.95zm-5-3.48c0 1.44.2 2.46.55 3.07.37.62.96.94 1.8.94.93 0 1.6-.33 2.02-1 .42-.67.64-1.7.64-3.1 0-1.36-.2-2.36-.63-2.98-.42-.63-1.1-.96-2-.96-.84 0-1.44.33-1.82.97-.36.63-.55 1.65-.55 3.07zM945.06 592.48c0 1.16.23 2.08.7 2.7.47.65 1.16.97 2.07.97.7 0 1.3-.15 1.72-.45.43-.3.72-.67.87-1.12l1.45.42c-.6 1.6-1.94 2.42-4.04 2.42-1.47 0-2.6-.45-3.36-1.35-.76-.9-1.14-2.25-1.14-4.02 0-1.68.38-3 1.14-3.9.77-.9 1.87-1.33 3.3-1.33 2.9 0 4.37 1.8 4.37 5.42v.24zm5.37-1.3c-.1-1.1-.35-1.87-.8-2.36-.44-.5-1.07-.74-1.9-.74-.8 0-1.43.27-1.9.82-.47.56-.7 1.3-.75 2.27zM962.63 592.07c0 3.56-1.2 5.35-3.64 5.35-1.54 0-2.57-.6-3.1-1.8h-.04c.03.07.04.6.04 1.63v4h-1.65v-12.17c0-1.05-.03-1.74-.06-2.1h1.6v.3c.03.15.04.38.05.7l.03.66h.03c.3-.62.7-1.08 1.18-1.37.48-.3 1.1-.45 1.9-.45 1.23 0 2.14.42 2.74 1.27.6.83.9 2.15.9 3.97zm-1.73.03c0-1.42-.18-2.44-.55-3.05-.38-.62-.98-.92-1.8-.92-.64 0-1.15.15-1.52.43-.37.28-.65.73-.85 1.33-.2.58-.28 1.38-.28 2.33 0 1.35.2 2.33.62 2.97.4.63 1.1.95 2.03.95.82 0 1.4-.3 1.78-.92.38-.62.57-1.66.57-3.13zM964.7 597.23V583.2h1.65v14.03zM977.26 592.1c0 1.8-.38 3.13-1.14 4-.77.88-1.88 1.32-3.34 1.32-1.44 0-2.53-.46-3.28-1.36-.73-.92-1.1-2.24-1.1-3.96 0-3.53 1.48-5.3 4.45-5.3 1.5 0 2.62.45 3.34 1.3.7.87 1.06 2.2 1.06 4zm-1.73 0c0-1.4-.2-2.43-.62-3.07-.4-.64-1.07-.95-2.03-.95-.96 0-1.66.3-2.1.97-.42.65-.65 1.67-.65 3.05 0 1.35.22 2.37.64 3.05.43.68 1.1 1 2 1 1 0 1.7-.3 2.12-.97.43-.66.65-1.7.65-3.08zM979.8 601.24c-.44 0-.82-.03-1.13-.1v-1.28c.23.04.5.05.77.05 1.03 0 1.84-.77 2.44-2.32l.16-.4L978.1 587h1.76l2.1 5.65c.02.1.06.2.1.32l.42 1.23.37 1.17.64-1.86 2.17-6.5h1.74l-3.8 10.22c-.42 1.1-.8 1.9-1.15 2.44-.36.53-.75.92-1.18 1.18-.43.27-.92.4-1.46.4z" stroke="#000" stroke-opacity="0" fill="#fff"/><path d="M957.07 576.08c-16.25.8-30.07-12.07-30.9-28.78-.9-16.76 11.52-31.1 27.77-32.07 16.25-.97 30.2 11.7 31.25 28.48l-11.7.8c-.65-10.12-9.04-17.8-18.85-17.2-9.8.55-17.3 9.2-16.78 19.33.47 10.12 8.86 17.87 18.67 17.44z" stroke="#000" stroke-opacity="0" stroke-width="3.77" fill="#fff"/><path d="M963.14 543.72l9.3 23.46 21.45-23.46z" stroke="#000" stroke-opacity="0" stroke-width="3.77" fill="#fff"/><path d="M1159.66 453.17c-1.14.1-2.05.34-2.96.8l-39.44 19.43c-2.16 1.02-3.64 2.84-4.1 5.23l-9.77 43.76c-.47 2.04-.13 4.08 1 5.9.13.23.24.34.47.57l27.28 35c1.48 1.94 3.52 2.97 5.9 2.97h43.9c2.38 0 4.42-1.03 5.9-2.96l27.28-35c1.48-1.94 2.05-4.2 1.48-6.6l-9.77-43.65c-.45-2.4-1.93-4.2-4.1-5.23l-39.43-19.44c-1.25-.57-2.4-.9-3.64-.8z" stroke="#000" stroke-opacity="0" stroke-width="3.83" fill="#326ce5"/><path d="M1159.64 450c-1.2.12-2.16.36-3.12.84l-41.64 20.52c-2.28 1.08-3.84 3-4.32 5.52l-10.32 46.2c-.48 2.16-.12 4.32 1.08 6.24.12.24.24.36.48.6l28.8 36.96c1.56 2.04 3.72 3.12 6.24 3.12h46.32c2.52 0 4.68-1.08 6.24-3.12l28.8-36.96c1.56-2.04 2.16-4.44 1.56-6.84l-10.32-46.2c-.48-2.52-2.04-4.44-4.32-5.52l-41.64-20.52c-1.32-.6-2.52-.96-3.84-.84zm0 3.24c1.32-.12 2.4.12 3.6.72l39.6 19.44c2.04 1.08 3.48 2.88 4.08 5.28l9.72 43.68c.48 2.4 0 4.56-1.44 6.48l-27.36 35.04c-1.44 1.92-3.48 3-5.88 3h-43.92c-2.4 0-4.44-1.08-5.88-3l-27.36-35.04c-.12-.12-.24-.36-.36-.6-1.2-1.8-1.56-3.72-1.08-5.88l9.72-43.68c.6-2.4 1.92-4.2 4.08-5.28l39.6-19.44c.96-.48 1.8-.72 2.88-.84z" stroke="#000" stroke-opacity="0" stroke-width="3.83" fill="#fff"/><path d="M1154.02 552.07c0 3.56-1.2 5.35-3.64 5.35-1.53 0-2.56-.6-3.08-1.8h-.05c.03.07.04.6.04 1.63v4h-1.66v-12.17c0-1.05-.02-1.74-.06-2.1h1.6l.02.3.05.7.02.66h.03c.3-.62.7-1.08 1.17-1.37.48-.3 1.1-.45 1.9-.45 1.23 0 2.14.42 2.74 1.27.62.83.92 2.15.92 3.97zm-1.73.03c0-1.42-.2-2.44-.56-3.05-.38-.62-.97-.92-1.78-.92-.66 0-1.17.15-1.54.43-.37.28-.65.73-.85 1.33-.2.58-.28 1.38-.28 2.33 0 1.35.2 2.33.6 2.97.43.63 1.1.95 2.04.95.82 0 1.4-.3 1.78-.92.38-.62.57-1.66.57-3.13zM1164.48 552.1c0 1.8-.4 3.13-1.15 4-.76.88-1.88 1.32-3.33 1.32-1.45 0-2.54-.46-3.28-1.36-.74-.92-1.1-2.24-1.1-3.96 0-3.53 1.47-5.3 4.44-5.3 1.52 0 2.63.45 3.34 1.3.72.87 1.08 2.2 1.08 4zm-1.73 0c0-1.4-.22-2.43-.62-3.07-.4-.64-1.08-.95-2.04-.95-.98 0-1.68.3-2.1.97-.44.65-.66 1.67-.66 3.05 0 1.35.2 2.37.64 3.05.42.68 1.1 1 2 1 1 0 1.7-.3 2.12-.97.43-.66.65-1.7.65-3.08zM1172.8 555.58c-.3.66-.7 1.12-1.22 1.4-.5.3-1.13.43-1.87.43-1.24 0-2.17-.43-2.76-1.3-.58-.86-.88-2.18-.88-3.94 0-3.57 1.22-5.35 3.65-5.35.76 0 1.38.16 1.9.44.5.28.9.74 1.2 1.35v-5.4h1.64v11.9c0 1.08.03 1.8.06 2.13h-1.58l-.06-.7c0-.37-.03-.68-.03-.95zm-5-3.48c0 1.44.18 2.46.54 3.07.37.62.96.94 1.8.94.93 0 1.6-.33 2.02-1 .43-.67.64-1.7.64-3.1 0-1.36-.2-2.36-.64-2.98-.42-.63-1.1-.96-2-.96-.84 0-1.44.33-1.82.97-.36.63-.55 1.65-.55 3.07z" stroke="#000" stroke-opacity="0" fill="#fff"/><path d="M1135.92 490.2L1160 483l24.1 7.2-24.1 7.2zM1135.92 492.95v26.4l22.43 12.83.12-32.32zM1184.08 492.95v26.4l-22.44 12.83-.1-32.32z" stroke="#000" stroke-opacity="0" stroke-width="3.77" fill="#fff"/><path d="M1179.66 473.17c-1.14.1-2.05.34-2.96.8l-39.44 19.43c-2.16 1.02-3.64 2.84-4.1 5.23l-9.77 43.76c-.47 2.04-.13 4.08 1 5.9.13.23.24.34.47.57l27.28 35c1.48 1.94 3.52 2.97 5.9 2.97h43.9c2.38 0 4.42-1.03 5.9-2.96l27.28-35c1.48-1.94 2.05-4.2 1.48-6.6l-9.77-43.65c-.45-2.4-1.93-4.2-4.1-5.23l-39.43-19.44c-1.25-.57-2.4-.9-3.64-.8z" stroke="#000" stroke-opacity="0" stroke-width="3.83" fill="#326ce5"/><path d="M1179.64 470c-1.2.12-2.16.36-3.12.84l-41.64 20.52c-2.28 1.08-3.84 3-4.32 5.52l-10.32 46.2c-.48 2.16-.12 4.32 1.08 6.24.12.24.24.36.48.6l28.8 36.96c1.56 2.04 3.72 3.12 6.24 3.12h46.32c2.52 0 4.68-1.08 6.24-3.12l28.8-36.96c1.56-2.04 2.16-4.44 1.56-6.84l-10.32-46.2c-.48-2.52-2.04-4.44-4.32-5.52l-41.64-20.52c-1.32-.6-2.52-.96-3.84-.84zm0 3.24c1.32-.12 2.4.12 3.6.72l39.6 19.44c2.04 1.08 3.48 2.88 4.08 5.28l9.72 43.68c.48 2.4 0 4.56-1.44 6.48l-27.36 35.04c-1.44 1.92-3.48 3-5.88 3h-43.92c-2.4 0-4.44-1.08-5.88-3l-27.36-35.04c-.12-.12-.24-.36-.36-.6-1.2-1.8-1.56-3.72-1.08-5.88l9.72-43.68c.6-2.4 1.92-4.2 4.08-5.28l39.6-19.44c.96-.48 1.8-.72 2.88-.84z" stroke="#000" stroke-opacity="0" stroke-width="3.83" fill="#fff"/><path d="M1174.02 572.07c0 3.56-1.2 5.35-3.64 5.35-1.53 0-2.56-.6-3.08-1.8h-.05c.03.07.04.6.04 1.63v4h-1.66v-12.17c0-1.05-.02-1.74-.06-2.1h1.6l.02.3.05.7.02.66h.03c.3-.62.7-1.08 1.17-1.37.48-.3 1.1-.45 1.9-.45 1.23 0 2.14.42 2.74 1.27.62.83.92 2.15.92 3.97zm-1.73.03c0-1.42-.2-2.44-.56-3.05-.38-.62-.97-.92-1.78-.92-.66 0-1.17.15-1.54.43-.37.28-.65.73-.85 1.33-.2.58-.28 1.38-.28 2.33 0 1.35.2 2.33.6 2.97.43.63 1.1.95 2.04.95.82 0 1.4-.3 1.78-.92.38-.62.57-1.66.57-3.13zM1184.48 572.1c0 1.8-.4 3.13-1.15 4-.76.88-1.88 1.32-3.33 1.32-1.45 0-2.54-.46-3.28-1.36-.74-.92-1.1-2.24-1.1-3.96 0-3.53 1.47-5.3 4.44-5.3 1.52 0 2.63.45 3.34 1.3.72.87 1.08 2.2 1.08 4zm-1.73 0c0-1.4-.22-2.43-.62-3.07-.4-.64-1.08-.95-2.04-.95-.98 0-1.68.3-2.1.97-.44.65-.66 1.67-.66 3.05 0 1.35.2 2.37.64 3.05.42.68 1.1 1 2 1 1 0 1.7-.3 2.12-.97.43-.66.65-1.7.65-3.08zM1192.8 575.58c-.3.66-.7 1.12-1.22 1.4-.5.3-1.13.43-1.87.43-1.24 0-2.17-.43-2.76-1.3-.58-.86-.88-2.18-.88-3.94 0-3.57 1.22-5.35 3.65-5.35.76 0 1.38.16 1.9.44.5.28.9.74 1.2 1.35v-5.4h1.64v11.9c0 1.08.03 1.8.06 2.13h-1.58l-.06-.7c0-.37-.03-.68-.03-.95zm-5-3.48c0 1.44.18 2.46.54 3.07.37.62.96.94 1.8.94.93 0 1.6-.33 2.02-1 .43-.67.64-1.7.64-3.1 0-1.36-.2-2.36-.64-2.98-.42-.63-1.1-.96-2-.96-.84 0-1.44.33-1.82.97-.36.63-.55 1.65-.55 3.07z" stroke="#000" stroke-opacity="0" fill="#fff"/><path d="M1155.92 510.2L1180 503l24.1 7.2-24.1 7.2zM1155.92 512.95v26.4l22.43 12.83.12-32.32zM1204.08 512.95v26.4l-22.44 12.83-.1-32.32z" stroke="#000" stroke-opacity="0" stroke-width="3.77" fill="#fff"/><path d="M1199.66 493.17c-1.14.1-2.05.34-2.96.8l-39.44 19.43c-2.16 1.02-3.64 2.84-4.1 5.23l-9.77 43.76c-.47 2.04-.13 4.08 1 5.9.13.23.24.34.47.57l27.28 35c1.48 1.94 3.52 2.97 5.9 2.97h43.9c2.38 0 4.42-1.03 5.9-2.96l27.28-35c1.48-1.94 2.05-4.2 1.48-6.6l-9.77-43.65c-.45-2.4-1.93-4.2-4.1-5.23l-39.43-19.44c-1.25-.57-2.4-.9-3.64-.8z" stroke="#000" stroke-opacity="0" stroke-width="3.83" fill="#326ce5"/><path d="M1199.64 490c-1.2.12-2.16.36-3.12.84l-41.64 20.52c-2.28 1.08-3.84 3-4.32 5.52l-10.32 46.2c-.48 2.16-.12 4.32 1.08 6.24.12.24.24.36.48.6l28.8 36.96c1.56 2.04 3.72 3.12 6.24 3.12h46.32c2.52 0 4.68-1.08 6.24-3.12l28.8-36.96c1.56-2.04 2.16-4.44 1.56-6.84l-10.32-46.2c-.48-2.52-2.04-4.44-4.32-5.52l-41.64-20.52c-1.32-.6-2.52-.96-3.84-.84zm0 3.24c1.32-.12 2.4.12 3.6.72l39.6 19.44c2.04 1.08 3.48 2.88 4.08 5.28l9.72 43.68c.48 2.4 0 4.56-1.44 6.48l-27.36 35.04c-1.44 1.92-3.48 3-5.88 3h-43.92c-2.4 0-4.44-1.08-5.88-3l-27.36-35.04c-.12-.12-.24-.36-.36-.6-1.2-1.8-1.56-3.72-1.08-5.88l9.72-43.68c.6-2.4 1.92-4.2 4.08-5.28l39.6-19.44c.96-.48 1.8-.72 2.88-.84z" stroke="#000" stroke-opacity="0" stroke-width="3.83" fill="#fff"/><path d="M1194.02 592.07c0 3.56-1.2 5.35-3.64 5.35-1.53 0-2.56-.6-3.08-1.8h-.05c.03.07.04.6.04 1.63v4h-1.66v-12.17c0-1.05-.02-1.74-.06-2.1h1.6l.02.3.05.7.02.66h.03c.3-.62.7-1.08 1.17-1.37.48-.3 1.1-.45 1.9-.45 1.23 0 2.14.42 2.74 1.27.62.83.92 2.15.92 3.97zm-1.73.03c0-1.42-.2-2.44-.56-3.05-.38-.62-.97-.92-1.78-.92-.66 0-1.17.15-1.54.43-.37.28-.65.73-.85 1.33-.2.58-.28 1.38-.28 2.33 0 1.35.2 2.33.6 2.97.43.63 1.1.95 2.04.95.82 0 1.4-.3 1.78-.92.38-.62.57-1.66.57-3.13zM1204.48 592.1c0 1.8-.4 3.13-1.15 4-.76.88-1.88 1.32-3.33 1.32-1.45 0-2.54-.46-3.28-1.36-.74-.92-1.1-2.24-1.1-3.96 0-3.53 1.47-5.3 4.44-5.3 1.52 0 2.63.45 3.34 1.3.72.87 1.08 2.2 1.08 4zm-1.73 0c0-1.4-.22-2.43-.62-3.07-.4-.64-1.08-.95-2.04-.95-.98 0-1.68.3-2.1.97-.44.65-.66 1.67-.66 3.05 0 1.35.2 2.37.64 3.05.42.68 1.1 1 2 1 1 0 1.7-.3 2.12-.97.43-.66.65-1.7.65-3.08zM1212.8 595.58c-.3.66-.7 1.12-1.22 1.4-.5.3-1.13.43-1.87.43-1.24 0-2.17-.43-2.76-1.3-.58-.86-.88-2.18-.88-3.94 0-3.57 1.22-5.35 3.65-5.35.76 0 1.38.16 1.9.44.5.28.9.74 1.2 1.35v-5.4h1.64v11.9c0 1.08.03 1.8.06 2.13h-1.58l-.06-.7c0-.37-.03-.68-.03-.95zm-5-3.48c0 1.44.18 2.46.54 3.07.37.62.96.94 1.8.94.93 0 1.6-.33 2.02-1 .43-.67.64-1.7.64-3.1 0-1.36-.2-2.36-.64-2.98-.42-.63-1.1-.96-2-.96-.84 0-1.44.33-1.82.97-.36.63-.55 1.65-.55 3.07z" stroke="#000" stroke-opacity="0" fill="#fff"/><path d="M1175.92 530.2L1200 523l24.1 7.2-24.1 7.2zM1175.92 532.95v26.4l22.43 12.83.12-32.32zM1224.08 532.95v26.4l-22.44 12.83-.1-32.32z" stroke="#000" stroke-opacity="0" stroke-width="3.77" fill="#fff"/><path d="M1017.84 550h106.82" stroke="#5e5e5e" stroke-width="2" fill="none"/><path d="M1017.86 551h-.8l-.45-2h1.26z" fill="#5e5e5e"/><path d="M1139.93 550l-14.27 4.64v-9.28z" stroke="#5e5e5e" stroke-width="2" fill="#5e5e5e"/><path d="M959.66 223.17c-1.14.1-2.05.34-2.96.8l-39.44 19.43c-2.16 1.02-3.64 2.84-4.1 5.23l-9.77 43.76c-.47 2.04-.13 4.08 1 5.9.13.23.24.34.47.57l27.28 35c1.48 1.94 3.52 2.97 5.9 2.97h43.9c2.38 0 4.42-1.03 5.9-2.96l27.28-35c1.48-1.94 2.05-4.2 1.48-6.6l-9.77-43.65c-.45-2.4-1.93-4.2-4.1-5.23l-39.43-19.44c-1.25-.57-2.4-.9-3.64-.8z" stroke="#000" stroke-opacity="0" stroke-width="3.83" fill="#326ce5"/><path d="M959.64 220c-1.2.12-2.16.36-3.12.84l-41.64 20.52c-2.28 1.08-3.84 3-4.32 5.52l-10.32 46.2c-.48 2.16-.12 4.32 1.08 6.24.12.24.24.36.48.6l28.8 36.96c1.56 2.04 3.72 3.12 6.24 3.12h46.32c2.52 0 4.68-1.08 6.24-3.12l28.8-36.96c1.56-2.04 2.16-4.44 1.56-6.84l-10.32-46.2c-.48-2.52-2.04-4.44-4.32-5.52l-41.64-20.52c-1.32-.6-2.52-.96-3.84-.84zm0 3.24c1.32-.12 2.4.12 3.6.72l39.6 19.44c2.04 1.08 3.48 2.88 4.08 5.28l9.72 43.68c.48 2.4 0 4.56-1.44 6.48l-27.36 35.04c-1.44 1.92-3.48 3-5.88 3h-43.92c-2.4 0-4.44-1.08-5.88-3l-27.36-35.04c-.12-.12-.24-.36-.36-.6-1.2-1.8-1.56-3.72-1.08-5.88l9.72-43.68c.6-2.4 1.92-4.2 4.08-5.28l39.6-19.44c.96-.48 1.8-.72 2.88-.84z" stroke="#000" stroke-opacity="0" stroke-width="3.83" fill="#fff"/><path d="M939.6 325.58c-.3.66-.7 1.12-1.2 1.4-.52.3-1.14.43-1.88.43-1.25 0-2.18-.43-2.77-1.3-.6-.86-.88-2.18-.88-3.94 0-3.57 1.2-5.35 3.65-5.35.75 0 1.37.16 1.88.44.5.28.9.74 1.2 1.35h.02v-5.4h1.63v11.9c0 1.08.03 1.8.06 2.13h-1.57l-.06-.7-.03-.95zm-5-3.48c0 1.44.2 2.46.55 3.07.37.62.96.94 1.8.94.93 0 1.6-.33 2.02-1 .42-.67.64-1.7.64-3.1 0-1.36-.2-2.36-.63-2.98-.42-.63-1.1-.96-2-.96-.84 0-1.44.33-1.82.97-.36.63-.55 1.65-.55 3.07zM945.06 322.48c0 1.16.23 2.08.7 2.7.47.65 1.16.97 2.07.97.7 0 1.3-.15 1.72-.45.43-.3.72-.67.87-1.12l1.45.42c-.6 1.6-1.94 2.42-4.04 2.42-1.47 0-2.6-.45-3.36-1.35-.76-.9-1.14-2.25-1.14-4.02 0-1.68.38-3 1.14-3.9.77-.9 1.87-1.33 3.3-1.33 2.9 0 4.37 1.8 4.37 5.42v.24zm5.37-1.3c-.1-1.1-.35-1.87-.8-2.36-.44-.5-1.07-.74-1.9-.74-.8 0-1.43.27-1.9.82-.47.56-.7 1.3-.75 2.27zM962.63 322.07c0 3.56-1.2 5.35-3.64 5.35-1.54 0-2.57-.6-3.1-1.8h-.04c.03.07.04.6.04 1.63v4h-1.65v-12.17c0-1.05-.03-1.74-.06-2.1h1.6v.3c.03.15.04.38.05.7l.03.66h.03c.3-.62.7-1.08 1.18-1.37.48-.3 1.1-.45 1.9-.45 1.23 0 2.14.42 2.74 1.27.6.83.9 2.15.9 3.97zm-1.73.03c0-1.42-.18-2.44-.55-3.05-.38-.62-.98-.92-1.8-.92-.64 0-1.15.15-1.52.43-.37.28-.65.73-.85 1.33-.2.58-.28 1.38-.28 2.33 0 1.35.2 2.33.62 2.97.4.63 1.1.95 2.03.95.82 0 1.4-.3 1.78-.92.38-.62.57-1.66.57-3.13zM964.7 327.23V313.2h1.65v14.03zM977.26 322.1c0 1.8-.38 3.13-1.14 4-.77.88-1.88 1.32-3.34 1.32-1.44 0-2.53-.46-3.28-1.36-.73-.92-1.1-2.24-1.1-3.96 0-3.53 1.48-5.3 4.45-5.3 1.5 0 2.62.45 3.34 1.3.7.87 1.06 2.2 1.06 4zm-1.73 0c0-1.4-.2-2.43-.62-3.07-.4-.64-1.07-.95-2.03-.95-.96 0-1.66.3-2.1.97-.42.65-.65 1.67-.65 3.05 0 1.35.22 2.37.64 3.05.43.68 1.1 1 2 1 1 0 1.7-.3 2.12-.97.43-.66.65-1.7.65-3.08zM979.8 331.24c-.44 0-.82-.03-1.13-.1v-1.28c.23.04.5.05.77.05 1.03 0 1.84-.77 2.44-2.32l.16-.4L978.1 317h1.76l2.1 5.65c.02.1.06.2.1.32l.42 1.23.37 1.17.64-1.86 2.17-6.5h1.74l-3.8 10.22c-.42 1.1-.8 1.9-1.15 2.44-.36.53-.75.92-1.18 1.18-.43.27-.92.4-1.46.4z" stroke="#000" stroke-opacity="0" fill="#fff"/><path d="M957.07 306.08c-16.25.8-30.07-12.07-30.9-28.78-.9-16.76 11.52-31.1 27.77-32.07 16.25-.97 30.2 11.7 31.25 28.48l-11.7.8c-.65-10.12-9.04-17.8-18.85-17.2-9.8.55-17.3 9.2-16.78 19.33.47 10.12 8.86 17.87 18.67 17.44z" stroke="#000" stroke-opacity="0" stroke-width="3.77" fill="#fff"/><path d="M963.14 273.72l9.3 23.46 21.45-23.46z" stroke="#000" stroke-opacity="0" stroke-width="3.77" fill="#fff"/><path d="M1199.66 223.17c-1.14.1-2.05.34-2.96.8l-39.44 19.43c-2.16 1.02-3.64 2.84-4.1 5.23l-9.77 43.76c-.47 2.04-.13 4.08 1 5.9.13.23.24.34.47.57l27.28 35c1.48 1.94 3.52 2.97 5.9 2.97h43.9c2.38 0 4.42-1.03 5.9-2.96l27.28-35c1.48-1.94 2.05-4.2 1.48-6.6l-9.77-43.65c-.45-2.4-1.93-4.2-4.1-5.23l-39.43-19.44c-1.25-.57-2.4-.9-3.64-.8z" stroke="#000" stroke-opacity="0" stroke-width="3.83" fill="#326ce5"/><path d="M1199.64 220c-1.2.12-2.16.36-3.12.84l-41.64 20.52c-2.28 1.08-3.84 3-4.32 5.52l-10.32 46.2c-.48 2.16-.12 4.32 1.08 6.24.12.24.24.36.48.6l28.8 36.96c1.56 2.04 3.72 3.12 6.24 3.12h46.32c2.52 0 4.68-1.08 6.24-3.12l28.8-36.96c1.56-2.04 2.16-4.44 1.56-6.84l-10.32-46.2c-.48-2.52-2.04-4.44-4.32-5.52l-41.64-20.52c-1.32-.6-2.52-.96-3.84-.84zm0 3.24c1.32-.12 2.4.12 3.6.72l39.6 19.44c2.04 1.08 3.48 2.88 4.08 5.28l9.72 43.68c.48 2.4 0 4.56-1.44 6.48l-27.36 35.04c-1.44 1.92-3.48 3-5.88 3h-43.92c-2.4 0-4.44-1.08-5.88-3l-27.36-35.04c-.12-.12-.24-.36-.36-.6-1.2-1.8-1.56-3.72-1.08-5.88l9.72-43.68c.6-2.4 1.92-4.2 4.08-5.28l39.6-19.44c.96-.48 1.8-.72 2.88-.84z" stroke="#000" stroke-opacity="0" stroke-width="3.83" fill="#fff"/><path d="M1194.02 322.07c0 3.56-1.2 5.35-3.64 5.35-1.53 0-2.56-.6-3.08-1.8h-.05c.03.07.04.6.04 1.63v4h-1.66v-12.17c0-1.05-.02-1.74-.06-2.1h1.6l.02.3.05.7.02.66h.03c.3-.62.7-1.08 1.17-1.37.48-.3 1.1-.45 1.9-.45 1.23 0 2.14.42 2.74 1.27.62.83.92 2.15.92 3.97zm-1.73.03c0-1.42-.2-2.44-.56-3.05-.38-.62-.97-.92-1.78-.92-.66 0-1.17.15-1.54.43-.37.28-.65.73-.85 1.33-.2.58-.28 1.38-.28 2.33 0 1.35.2 2.33.6 2.97.43.63 1.1.95 2.04.95.82 0 1.4-.3 1.78-.92.38-.62.57-1.66.57-3.13zM1204.48 322.1c0 1.8-.4 3.13-1.15 4-.76.88-1.88 1.32-3.33 1.32-1.45 0-2.54-.46-3.28-1.36-.74-.92-1.1-2.24-1.1-3.96 0-3.53 1.47-5.3 4.44-5.3 1.52 0 2.63.45 3.34 1.3.72.87 1.08 2.2 1.08 4zm-1.73 0c0-1.4-.22-2.43-.62-3.07-.4-.64-1.08-.95-2.04-.95-.98 0-1.68.3-2.1.97-.44.65-.66 1.67-.66 3.05 0 1.35.2 2.37.64 3.05.42.68 1.1 1 2 1 1 0 1.7-.3 2.12-.97.43-.66.65-1.7.65-3.08zM1212.8 325.58c-.3.66-.7 1.12-1.22 1.4-.5.3-1.13.43-1.87.43-1.24 0-2.17-.43-2.76-1.3-.58-.86-.88-2.18-.88-3.94 0-3.57 1.22-5.35 3.65-5.35.76 0 1.38.16 1.9.44.5.28.9.74 1.2 1.35v-5.4h1.64v11.9c0 1.08.03 1.8.06 2.13h-1.58l-.06-.7c0-.37-.03-.68-.03-.95zm-5-3.48c0 1.44.18 2.46.54 3.07.37.62.96.94 1.8.94.93 0 1.6-.33 2.02-1 .43-.67.64-1.7.64-3.1 0-1.36-.2-2.36-.64-2.98-.42-.63-1.1-.96-2-.96-.84 0-1.44.33-1.82.97-.36.63-.55 1.65-.55 3.07z" stroke="#000" stroke-opacity="0" fill="#fff"/><path d="M1175.92 260.2L1200 253l24.1 7.2-24.1 7.2zM1175.92 262.95v26.4l22.43 12.83.12-32.32zM1224.08 262.95v26.4l-22.44 12.83-.1-32.32z" stroke="#000" stroke-opacity="0" stroke-width="3.77" fill="#fff"/><path d="M959.66 723.17c-1.14.1-2.05.34-2.96.8l-39.44 19.43c-2.16 1.02-3.64 2.84-4.1 5.23l-9.77 43.76c-.47 2.04-.13 4.08 1 5.9.13.23.24.34.47.57l27.28 35c1.48 1.94 3.52 2.97 5.9 2.97h43.9c2.38 0 4.42-1.03 5.9-2.96l27.28-35c1.48-1.94 2.05-4.2 1.48-6.6l-9.77-43.65c-.45-2.4-1.93-4.2-4.1-5.23l-39.43-19.44c-1.25-.57-2.4-.9-3.64-.8z" stroke="#000" stroke-opacity="0" stroke-width="3.83" fill="#326ce5"/><path d="M959.64 720c-1.2.12-2.16.36-3.12.84l-41.64 20.52c-2.28 1.08-3.84 3-4.32 5.52l-10.32 46.2c-.48 2.16-.12 4.32 1.08 6.24.12.24.24.36.48.6l28.8 36.96c1.56 2.04 3.72 3.12 6.24 3.12h46.32c2.52 0 4.68-1.08 6.24-3.12l28.8-36.96c1.56-2.04 2.16-4.44 1.56-6.84l-10.32-46.2c-.48-2.52-2.04-4.44-4.32-5.52l-41.64-20.52c-1.32-.6-2.52-.96-3.84-.84zm0 3.24c1.32-.12 2.4.12 3.6.72l39.6 19.44c2.04 1.08 3.48 2.88 4.08 5.28l9.72 43.68c.48 2.4 0 4.56-1.44 6.48l-27.36 35.04c-1.44 1.92-3.48 3-5.88 3h-43.92c-2.4 0-4.44-1.08-5.88-3l-27.36-35.04c-.12-.12-.24-.36-.36-.6-1.2-1.8-1.56-3.72-1.08-5.88l9.72-43.68c.6-2.4 1.92-4.2 4.08-5.28l39.6-19.44c.96-.48 1.8-.72 2.88-.84z" stroke="#000" stroke-opacity="0" stroke-width="3.83" fill="#fff"/><path d="M939.6 825.58c-.3.66-.7 1.12-1.2 1.4-.52.3-1.14.43-1.88.43-1.25 0-2.18-.43-2.77-1.3-.6-.86-.88-2.18-.88-3.94 0-3.57 1.2-5.35 3.65-5.35.75 0 1.37.16 1.88.44.5.28.9.74 1.2 1.35h.02v-5.4h1.63v11.9c0 1.08.03 1.8.06 2.13h-1.57l-.06-.7-.03-.95zm-5-3.48c0 1.44.2 2.46.55 3.07.37.62.96.94 1.8.94.93 0 1.6-.33 2.02-1 .42-.67.64-1.7.64-3.1 0-1.36-.2-2.36-.63-2.98-.42-.63-1.1-.96-2-.96-.84 0-1.44.33-1.82.97-.36.63-.55 1.65-.55 3.07zM945.06 822.48c0 1.16.23 2.08.7 2.7.47.65 1.16.97 2.07.97.7 0 1.3-.15 1.72-.45.43-.3.72-.67.87-1.12l1.45.42c-.6 1.6-1.94 2.42-4.04 2.42-1.47 0-2.6-.45-3.36-1.35-.76-.9-1.14-2.25-1.14-4.02 0-1.68.38-3 1.14-3.9.77-.9 1.87-1.33 3.3-1.33 2.9 0 4.37 1.8 4.37 5.42v.24zm5.37-1.3c-.1-1.1-.35-1.87-.8-2.36-.44-.5-1.07-.74-1.9-.74-.8 0-1.43.27-1.9.82-.47.56-.7 1.3-.75 2.27zM962.63 822.07c0 3.56-1.2 5.35-3.64 5.35-1.54 0-2.57-.6-3.1-1.8h-.04c.03.07.04.6.04 1.63v4h-1.65v-12.17c0-1.05-.03-1.74-.06-2.1h1.6v.3c.03.15.04.38.05.7l.03.66h.03c.3-.62.7-1.08 1.18-1.37.48-.3 1.1-.45 1.9-.45 1.23 0 2.14.42 2.74 1.27.6.83.9 2.15.9 3.97zm-1.73.03c0-1.42-.18-2.44-.55-3.05-.38-.62-.98-.92-1.8-.92-.64 0-1.15.15-1.52.43-.37.28-.65.73-.85 1.33-.2.58-.28 1.38-.28 2.33 0 1.35.2 2.33.62 2.97.4.63 1.1.95 2.03.95.82 0 1.4-.3 1.78-.92.38-.62.57-1.66.57-3.13zM964.7 827.23V813.2h1.65v14.03zM977.26 822.1c0 1.8-.38 3.13-1.14 4-.77.88-1.88 1.32-3.34 1.32-1.44 0-2.53-.46-3.28-1.36-.73-.92-1.1-2.24-1.1-3.96 0-3.53 1.48-5.3 4.45-5.3 1.5 0 2.62.45 3.34 1.3.7.87 1.06 2.2 1.06 4zm-1.73 0c0-1.4-.2-2.43-.62-3.07-.4-.64-1.07-.95-2.03-.95-.96 0-1.66.3-2.1.97-.42.65-.65 1.67-.65 3.05 0 1.35.22 2.37.64 3.05.43.68 1.1 1 2 1 1 0 1.7-.3 2.12-.97.43-.66.65-1.7.65-3.08zM979.8 831.24c-.44 0-.82-.03-1.13-.1v-1.28c.23.04.5.05.77.05 1.03 0 1.84-.77 2.44-2.32l.16-.4L978.1 817h1.76l2.1 5.65c.02.1.06.2.1.32l.42 1.23.37 1.17.64-1.86 2.17-6.5h1.74l-3.8 10.22c-.42 1.1-.8 1.9-1.15 2.44-.36.53-.75.92-1.18 1.18-.43.27-.92.4-1.46.4z" stroke="#000" stroke-opacity="0" fill="#fff"/><path d="M957.07 806.08c-16.25.8-30.07-12.07-30.9-28.78-.9-16.76 11.52-31.1 27.77-32.07 16.25-.97 30.2 11.7 31.25 28.48l-11.7.8c-.65-10.12-9.04-17.8-18.85-17.2-9.8.55-17.3 9.2-16.78 19.33.47 10.12 8.86 17.87 18.67 17.44z" stroke="#000" stroke-opacity="0" stroke-width="3.77" fill="#fff"/><path d="M963.14 773.72l9.3 23.46 21.45-23.46z" stroke="#000" stroke-opacity="0" stroke-width="3.77" fill="#fff"/><path d="M1199.66 723.17c-1.14.1-2.05.34-2.96.8l-39.44 19.43c-2.16 1.02-3.64 2.84-4.1 5.23l-9.77 43.76c-.47 2.04-.13 4.08 1 5.9.13.23.24.34.47.57l27.28 35c1.48 1.94 3.52 2.97 5.9 2.97h43.9c2.38 0 4.42-1.03 5.9-2.96l27.28-35c1.48-1.94 2.05-4.2 1.48-6.6l-9.77-43.65c-.45-2.4-1.93-4.2-4.1-5.23l-39.43-19.44c-1.25-.57-2.4-.9-3.64-.8z" stroke="#000" stroke-opacity="0" stroke-width="3.83" fill="#326ce5"/><path d="M1199.64 720c-1.2.12-2.16.36-3.12.84l-41.64 20.52c-2.28 1.08-3.84 3-4.32 5.52l-10.32 46.2c-.48 2.16-.12 4.32 1.08 6.24.12.24.24.36.48.6l28.8 36.96c1.56 2.04 3.72 3.12 6.24 3.12h46.32c2.52 0 4.68-1.08 6.24-3.12l28.8-36.96c1.56-2.04 2.16-4.44 1.56-6.84l-10.32-46.2c-.48-2.52-2.04-4.44-4.32-5.52l-41.64-20.52c-1.32-.6-2.52-.96-3.84-.84zm0 3.24c1.32-.12 2.4.12 3.6.72l39.6 19.44c2.04 1.08 3.48 2.88 4.08 5.28l9.72 43.68c.48 2.4 0 4.56-1.44 6.48l-27.36 35.04c-1.44 1.92-3.48 3-5.88 3h-43.92c-2.4 0-4.44-1.08-5.88-3l-27.36-35.04c-.12-.12-.24-.36-.36-.6-1.2-1.8-1.56-3.72-1.08-5.88l9.72-43.68c.6-2.4 1.92-4.2 4.08-5.28l39.6-19.44c.96-.48 1.8-.72 2.88-.84z" stroke="#000" stroke-opacity="0" stroke-width="3.83" fill="#fff"/><path d="M1194.02 822.07c0 3.56-1.2 5.35-3.64 5.35-1.53 0-2.56-.6-3.08-1.8h-.05c.03.07.04.6.04 1.63v4h-1.66v-12.17c0-1.05-.02-1.74-.06-2.1h1.6l.02.3.05.7.02.66h.03c.3-.62.7-1.08 1.17-1.37.48-.3 1.1-.45 1.9-.45 1.23 0 2.14.42 2.74 1.27.62.83.92 2.15.92 3.97zm-1.73.03c0-1.42-.2-2.44-.56-3.05-.38-.62-.97-.92-1.78-.92-.66 0-1.17.15-1.54.43-.37.28-.65.73-.85 1.33-.2.58-.28 1.38-.28 2.33 0 1.35.2 2.33.6 2.97.43.63 1.1.95 2.04.95.82 0 1.4-.3 1.78-.92.38-.62.57-1.66.57-3.13zM1204.48 822.1c0 1.8-.4 3.13-1.15 4-.76.88-1.88 1.32-3.33 1.32-1.45 0-2.54-.46-3.28-1.36-.74-.92-1.1-2.24-1.1-3.96 0-3.53 1.47-5.3 4.44-5.3 1.52 0 2.63.45 3.34 1.3.72.87 1.08 2.2 1.08 4zm-1.73 0c0-1.4-.22-2.43-.62-3.07-.4-.64-1.08-.95-2.04-.95-.98 0-1.68.3-2.1.97-.44.65-.66 1.67-.66 3.05 0 1.35.2 2.37.64 3.05.42.68 1.1 1 2 1 1 0 1.7-.3 2.12-.97.43-.66.65-1.7.65-3.08zM1212.8 825.58c-.3.66-.7 1.12-1.22 1.4-.5.3-1.13.43-1.87.43-1.24 0-2.17-.43-2.76-1.3-.58-.86-.88-2.18-.88-3.94 0-3.57 1.22-5.35 3.65-5.35.76 0 1.38.16 1.9.44.5.28.9.74 1.2 1.35v-5.4h1.64v11.9c0 1.08.03 1.8.06 2.13h-1.58l-.06-.7c0-.37-.03-.68-.03-.95zm-5-3.48c0 1.44.18 2.46.54 3.07.37.62.96.94 1.8.94.93 0 1.6-.33 2.02-1 .43-.67.64-1.7.64-3.1 0-1.36-.2-2.36-.64-2.98-.42-.63-1.1-.96-2-.96-.84 0-1.44.33-1.82.97-.36.63-.55 1.65-.55 3.07z" stroke="#000" stroke-opacity="0" fill="#fff"/><path d="M1175.92 760.2L1200 753l24.1 7.2-24.1 7.2zM1175.92 762.95v26.4l22.43 12.83.12-32.32zM1224.08 762.95v26.4l-22.44 12.83-.1-32.32z" stroke="#000" stroke-opacity="0" stroke-width="3.77" fill="#fff"/><path d="M1017.84 780h106.82" stroke="#5e5e5e" stroke-width="2" fill="none"/><path d="M1017.86 781h-.8l-.45-2h1.26z" fill="#5e5e5e"/><path d="M1139.93 780l-14.27 4.64v-9.28z" stroke="#5e5e5e" stroke-width="2" fill="#5e5e5e"/><path d="M1017.84 280h106.82" stroke="#5e5e5e" stroke-width="2" fill="none"/><path d="M1017.86 281h-.8l-.45-2h1.26z" fill="#5e5e5e"/><path d="M1139.93 280l-14.27 4.64v-9.28z" stroke="#5e5e5e" stroke-width="2" fill="#5e5e5e"/><defs><path fill="#333" d="M175 0L67-191c6 58 2 128 3 191H24v-248h59L193-55c-6-58-2-129-3-193h46V0h-61" id="p"/><path fill="#333" d="M133-34C117-15 103 5 69 4 32 3 11-16 11-54c-1-60 55-63 116-61 1-26-3-47-28-47-18 1-26 9-28 27l-52-2c7-38 36-58 82-57s74 22 75 68l1 82c-1 14 12 18 25 15v27c-30 8-71 5-69-32zm-48 3c29 0 43-24 42-57-32 0-66-3-65 30 0 17 8 27 23 27" id="q"/><path fill="#333" d="M220-157c-53 9-28 100-34 157h-49v-107c1-27-5-49-29-50C55-147 81-57 75 0H25l-1-190h47c2 12-1 28 3 38 10-53 101-56 108 0 13-22 24-43 59-42 82 1 51 116 57 194h-49v-107c-1-25-5-48-29-50" id="r"/><path fill="#333" d="M185-48c-13 30-37 53-82 52C43 2 14-33 14-96s30-98 90-98c62 0 83 45 84 108H66c0 31 8 55 39 56 18 0 30-7 34-22zm-45-69c5-46-57-63-70-21-2 6-4 13-4 21h74" id="s"/><path fill="#333" d="M137-138c1-29-70-34-71-4 15 46 118 7 119 86 1 83-164 76-172 9l43-7c4 19 20 25 44 25 33 8 57-30 24-41C81-84 22-81 20-136c-2-80 154-74 161-7" id="t"/><path fill="#333" d="M135-194c53 0 70 44 70 98 0 56-19 98-73 100-31 1-45-17-59-34 3 33 2 69 2 105H25l-1-265h48c2 10 0 23 3 31 11-24 29-35 60-35zM114-30c33 0 39-31 40-66 0-38-9-64-40-64-56 0-55 130 0 130" id="u"/><path fill="#333" d="M190-63c-7 42-38 67-86 67-59 0-84-38-90-98-12-110 154-137 174-36l-49 2c-2-19-15-32-35-32-30 0-35 28-38 64-6 74 65 87 74 30" id="v"/><path fill="#333" d="M35-132v-50h50v50H35zM35 0v-49h50V0H35" id="w"/><g id="a"><use transform="matrix(0.08024691358024691,0,0,0.08024691358024691,0,0)" xlink:href="#p"/><use transform="matrix(0.08024691358024691,0,0,0.08024691358024691,20.78395061728395,0)" xlink:href="#q"/><use transform="matrix(0.08024691358024691,0,0,0.08024691358024691,36.83333333333333,0)" xlink:href="#r"/><use transform="matrix(0.08024691358024691,0,0,0.08024691358024691,62.51234567901234,0)" xlink:href="#s"/><use transform="matrix(0.08024691358024691,0,0,0.08024691358024691,78.56172839506172,0)" xlink:href="#t"/><use transform="matrix(0.08024691358024691,0,0,0.08024691358024691,94.6111111111111,0)" xlink:href="#u"/><use transform="matrix(0.08024691358024691,0,0,0.08024691358024691,112.18518518518518,0)" xlink:href="#q"/><use transform="matrix(0.08024691358024691,0,0,0.08024691358024691,128.23456790123456,0)" xlink:href="#v"/><use transform="matrix(0.08024691358024691,0,0,0.08024691358024691,144.28395061728395,0)" xlink:href="#s"/><use transform="matrix(0.08024691358024691,0,0,0.08024691358024691,160.33333333333334,0)" xlink:href="#w"/></g><path fill="#333" d="M135-150c-39-12-60 13-60 57V0H25l-1-190h47c2 13-1 29 3 40 6-28 27-53 61-41v41" id="x"/><path fill="#333" d="M195-6C206 82 75 100 31 46c-4-6-6-13-8-21l49-6c3 16 16 24 34 25 40 0 42-37 40-79-11 22-30 35-61 35-53 0-70-43-70-97 0-56 18-96 73-97 30 0 46 14 59 34l2-30h47zm-90-29c32 0 41-27 41-63 0-35-9-62-40-62-32 0-39 29-40 63 0 36 9 62 39 62" id="y"/><path fill="#333" d="M110-194c64 0 96 36 96 99 0 64-35 99-97 99-61 0-95-36-95-99 0-62 34-99 96-99zm-1 164c35 0 45-28 45-65 0-40-10-65-43-65-34 0-45 26-45 65 0 36 10 65 43 65" id="z"/><g id="b"><use transform="matrix(0.08024691358024691,0,0,0.08024691358024691,0,0)" xlink:href="#q"/><use transform="matrix(0.08024691358024691,0,0,0.08024691358024691,16.049382716049383,0)" xlink:href="#x"/><use transform="matrix(0.08024691358024691,0,0,0.08024691358024691,27.28395061728395,0)" xlink:href="#y"/><use transform="matrix(0.08024691358024691,0,0,0.08024691358024691,44.858024691358025,0)" xlink:href="#z"/></g><path fill="#333" d="M67-125c0 53 21 87 73 88 37 1 54-22 65-47l45 17C233-25 199 4 140 4 58 4 20-42 15-125 8-235 124-281 211-232c18 10 29 29 36 50l-46 12c-8-25-30-41-62-41-52 0-71 34-72 86" id="A"/><path fill="#333" d="M85 4C-2 5 27-109 22-190h50c7 57-23 150 33 157 60-5 35-97 40-157h50l1 190h-47c-2-12 1-28-3-38-12 25-28 42-61 42" id="B"/><path fill="#333" d="M115-3C79 11 28 4 28-45v-112H4v-33h27l15-45h31v45h36v33H77v99c-1 23 16 31 38 25v30" id="C"/><g id="c"><use transform="matrix(0.07407407407407407,0,0,0.07407407407407407,0,0)" xlink:href="#A"/><use transform="matrix(0.07407407407407407,0,0,0.07407407407407407,19.185185185185183,0)" xlink:href="#B"/><use transform="matrix(0.07407407407407407,0,0,0.07407407407407407,35.407407407407405,0)" xlink:href="#t"/><use transform="matrix(0.07407407407407407,0,0,0.07407407407407407,50.222222222222214,0)" xlink:href="#C"/><use transform="matrix(0.07407407407407407,0,0,0.07407407407407407,59.03703703703703,0)" xlink:href="#z"/><use transform="matrix(0.07407407407407407,0,0,0.07407407407407407,75.25925925925925,0)" xlink:href="#r"/></g><path fill="#333" d="M240-174c0 40-23 61-54 70L253 0h-59l-57-94H76V0H24v-248c93 4 217-23 216 74zM76-134c48-2 112 12 112-38 0-48-66-32-112-35v73" id="D"/><g id="d"><use transform="matrix(0.07407407407407407,0,0,0.07407407407407407,0,0)" xlink:href="#D"/><use transform="matrix(0.07407407407407407,0,0,0.07407407407407407,19.185185185185183,0)" xlink:href="#s"/><use transform="matrix(0.07407407407407407,0,0,0.07407407407407407,34,0)" xlink:href="#t"/><use transform="matrix(0.07407407407407407,0,0,0.07407407407407407,48.81481481481481,0)" xlink:href="#z"/><use transform="matrix(0.07407407407407407,0,0,0.07407407407407407,65.03703703703704,0)" xlink:href="#B"/><use transform="matrix(0.07407407407407407,0,0,0.07407407407407407,81.25925925925927,0)" xlink:href="#x"/><use transform="matrix(0.07407407407407407,0,0,0.07407407407407407,91.62962962962965,0)" xlink:href="#v"/><use transform="matrix(0.07407407407407407,0,0,0.07407407407407407,106.44444444444444,0)" xlink:href="#s"/></g><path fill="#333" d="M24-248c120-7 223 5 221 122C244-46 201 0 124 0H24v-248zM76-40c74 7 117-18 117-86 0-67-45-88-117-82v168" id="E"/><path fill="#333" d="M121-226c-27-7-43 5-38 36h38v33H83V0H34v-157H6v-33h28c-9-59 32-81 87-68v32" id="F"/><path fill="#333" d="M25-224v-37h50v37H25zM25 0v-190h50V0H25" id="G"/><path fill="#333" d="M135-194c87-1 58 113 63 194h-50c-7-57 23-157-34-157-59 0-34 97-39 157H25l-1-190h47c2 12-1 28 3 38 12-26 28-41 61-42" id="H"/><g id="e"><use transform="matrix(0.07407407407407407,0,0,0.07407407407407407,0,0)" xlink:href="#E"/><use transform="matrix(0.07407407407407407,0,0,0.07407407407407407,19.185185185185183,0)" xlink:href="#s"/><use transform="matrix(0.07407407407407407,0,0,0.07407407407407407,34,0)" xlink:href="#F"/><use transform="matrix(0.07407407407407407,0,0,0.07407407407407407,42.814814814814824,0)" xlink:href="#G"/><use transform="matrix(0.07407407407407407,0,0,0.07407407407407407,50.22222222222222,0)" xlink:href="#H"/><use transform="matrix(0.07407407407407407,0,0,0.07407407407407407,66.44444444444444,0)" xlink:href="#G"/><use transform="matrix(0.07407407407407407,0,0,0.07407407407407407,73.85185185185185,0)" xlink:href="#C"/><use transform="matrix(0.07407407407407407,0,0,0.07407407407407407,82.66666666666666,0)" xlink:href="#G"/><use transform="matrix(0.07407407407407407,0,0,0.07407407407407407,90.07407407407408,0)" xlink:href="#z"/><use transform="matrix(0.07407407407407407,0,0,0.07407407407407407,106.29629629629628,0)" xlink:href="#H"/><use transform="matrix(0.07407407407407407,0,0,0.07407407407407407,122.5185185185185,0)" xlink:href="#t"/></g><path fill="#333" d="M199 0l-22-63H83L61 0H9l90-248h61L250 0h-51zm-33-102l-36-108c-10 38-24 72-36 108h72" id="I"/><g id="f"><use transform="matrix(0.07407407407407407,0,0,0.07407407407407407,0,0)" xlink:href="#I"/><use transform="matrix(0.07407407407407407,0,0,0.07407407407407407,19.185185185185183,0)" xlink:href="#x"/><use transform="matrix(0.07407407407407407,0,0,0.07407407407407407,29.555555555555554,0)" xlink:href="#y"/><use transform="matrix(0.07407407407407407,0,0,0.07407407407407407,45.77777777777778,0)" xlink:href="#z"/></g><path fill="#333" d="M169-182c-1-43-94-46-97-3 18 66 151 10 154 114 3 95-165 93-204 36-6-8-10-19-12-30l50-8c3 46 112 56 116 5-17-69-150-10-154-114-4-87 153-88 188-35 5 8 8 18 10 28" id="J"/><path fill="#333" d="M128 0H69L1-190h53L99-40l48-150h52" id="K"/><g id="g"><use transform="matrix(0.07407407407407407,0,0,0.07407407407407407,0,0)" xlink:href="#J"/><use transform="matrix(0.07407407407407407,0,0,0.07407407407407407,17.77777777777778,0)" xlink:href="#s"/><use transform="matrix(0.07407407407407407,0,0,0.07407407407407407,32.592592592592595,0)" xlink:href="#x"/><use transform="matrix(0.07407407407407407,0,0,0.07407407407407407,42.96296296296296,0)" xlink:href="#K"/><use transform="matrix(0.07407407407407407,0,0,0.07407407407407407,57.77777777777777,0)" xlink:href="#s"/><use transform="matrix(0.07407407407407407,0,0,0.07407407407407407,72.59259259259258,0)" xlink:href="#x"/></g><path fill="#333" d="M14-72v-43h91v43H14" id="L"/><g id="h"><use transform="matrix(0.08024691358024691,0,0,0.08024691358024691,0,0)" xlink:href="#q"/><use transform="matrix(0.08024691358024691,0,0,0.08024691358024691,16.049382716049383,0)" xlink:href="#x"/><use transform="matrix(0.08024691358024691,0,0,0.08024691358024691,27.28395061728395,0)" xlink:href="#y"/><use transform="matrix(0.08024691358024691,0,0,0.08024691358024691,44.858024691358025,0)" xlink:href="#z"/><use transform="matrix(0.08024691358024691,0,0,0.08024691358024691,62.4320987654321,0)" xlink:href="#L"/><use transform="matrix(0.08024691358024691,0,0,0.08024691358024691,71.98148148148148,0)" xlink:href="#s"/><use transform="matrix(0.08024691358024691,0,0,0.08024691358024691,88.03086419753086,0)" xlink:href="#K"/><use transform="matrix(0.08024691358024691,0,0,0.08024691358024691,104.08024691358024,0)" xlink:href="#s"/><use transform="matrix(0.08024691358024691,0,0,0.08024691358024691,120.12962962962962,0)" xlink:href="#H"/><use transform="matrix(0.08024691358024691,0,0,0.08024691358024691,137.7037037037037,0)" xlink:href="#C"/><use transform="matrix(0.08024691358024691,0,0,0.08024691358024691,147.2530864197531,0)" xlink:href="#t"/></g><g id="i"><use transform="matrix(0.07407407407407407,0,0,0.07407407407407407,0,0)" xlink:href="#J"/><use transform="matrix(0.07407407407407407,0,0,0.07407407407407407,17.77777777777778,0)" xlink:href="#s"/><use transform="matrix(0.07407407407407407,0,0,0.07407407407407407,32.592592592592595,0)" xlink:href="#H"/><use transform="matrix(0.07407407407407407,0,0,0.07407407407407407,48.814814814814824,0)" xlink:href="#t"/><use transform="matrix(0.07407407407407407,0,0,0.07407407407407407,63.62962962962963,0)" xlink:href="#z"/><use transform="matrix(0.07407407407407407,0,0,0.07407407407407407,79.85185185185185,0)" xlink:href="#x"/></g><path fill="#333" d="M25 0v-261h50V0H25" id="M"/><g id="j"><use transform="matrix(0.07407407407407407,0,0,0.07407407407407407,0,0)" xlink:href="#A"/><use transform="matrix(0.07407407407407407,0,0,0.07407407407407407,19.185185185185183,0)" xlink:href="#z"/><use transform="matrix(0.07407407407407407,0,0,0.07407407407407407,35.407407407407405,0)" xlink:href="#H"/><use transform="matrix(0.07407407407407407,0,0,0.07407407407407407,51.629629629629626,0)" xlink:href="#C"/><use transform="matrix(0.07407407407407407,0,0,0.07407407407407407,60.44444444444444,0)" xlink:href="#x"/><use transform="matrix(0.07407407407407407,0,0,0.07407407407407407,70.81481481481481,0)" xlink:href="#z"/><use transform="matrix(0.07407407407407407,0,0,0.07407407407407407,87.03703703703704,0)" xlink:href="#M"/><use transform="matrix(0.07407407407407407,0,0,0.07407407407407407,94.44444444444444,0)" xlink:href="#M"/><use transform="matrix(0.07407407407407407,0,0,0.07407407407407407,101.85185185185185,0)" xlink:href="#s"/><use transform="matrix(0.07407407407407407,0,0,0.07407407407407407,116.66666666666666,0)" xlink:href="#x"/></g><path fill="#333" d="M24 0v-248h195v40H76v63h132v40H76v65h150V0H24" id="N"/><g id="k"><use transform="matrix(0.07407407407407407,0,0,0.07407407407407407,0,0)" xlink:href="#N"/><use transform="matrix(0.07407407407407407,0,0,0.07407407407407407,17.77777777777778,0)" xlink:href="#K"/><use transform="matrix(0.07407407407407407,0,0,0.07407407407407407,32.592592592592595,0)" xlink:href="#s"/><use transform="matrix(0.07407407407407407,0,0,0.07407407407407407,47.407407407407405,0)" xlink:href="#H"/><use transform="matrix(0.07407407407407407,0,0,0.07407407407407407,63.629629629629626,0)" xlink:href="#C"/></g><g id="l"><use transform="matrix(0.07407407407407407,0,0,0.07407407407407407,0,0)" xlink:href="#J"/><use transform="matrix(0.07407407407407407,0,0,0.07407407407407407,17.77777777777778,0)" xlink:href="#z"/><use transform="matrix(0.07407407407407407,0,0,0.07407407407407407,34,0)" xlink:href="#B"/><use transform="matrix(0.07407407407407407,0,0,0.07407407407407407,50.22222222222222,0)" xlink:href="#x"/><use transform="matrix(0.07407407407407407,0,0,0.07407407407407407,60.592592592592595,0)" xlink:href="#v"/><use transform="matrix(0.07407407407407407,0,0,0.07407407407407407,75.4074074074074,0)" xlink:href="#s"/></g><g id="m"><use transform="matrix(0.07407407407407407,0,0,0.07407407407407407,0,0)" xlink:href="#A"/><use transform="matrix(0.07407407407407407,0,0,0.07407407407407407,19.185185185185183,0)" xlink:href="#z"/><use transform="matrix(0.07407407407407407,0,0,0.07407407407407407,35.407407407407405,0)" xlink:href="#H"/><use transform="matrix(0.07407407407407407,0,0,0.07407407407407407,51.629629629629626,0)" xlink:href="#C"/><use transform="matrix(0.07407407407407407,0,0,0.07407407407407407,60.44444444444444,0)" xlink:href="#x"/><use transform="matrix(0.07407407407407407,0,0,0.07407407407407407,70.81481481481481,0)" xlink:href="#z"/><use transform="matrix(0.07407407407407407,0,0,0.07407407407407407,87.03703703703704,0)" xlink:href="#M"/><use transform="matrix(0.07407407407407407,0,0,0.07407407407407407,94.44444444444444,0)" xlink:href="#M"/><use transform="matrix(0.07407407407407407,0,0,0.07407407407407407,101.85185185185185,0)" xlink:href="#s"/><use transform="matrix(0.07407407407407407,0,0,0.07407407407407407,116.66666666666666,0)" xlink:href="#x"/></g><path fill="#333" d="M182-130c37 4 62 22 62 59C244 23 116-4 24 0v-248c84 5 203-23 205 63 0 31-19 50-47 55zM76-148c40-3 101 13 101-30 0-44-60-28-101-31v61zm0 110c48-3 116 14 116-37 0-48-69-32-116-35v72" id="O"/><g id="n"><use transform="matrix(0.07407407407407407,0,0,0.07407407407407407,0,0)" xlink:href="#O"/><use transform="matrix(0.07407407407407407,0,0,0.07407407407407407,19.185185185185183,0)" xlink:href="#B"/><use transform="matrix(0.07407407407407407,0,0,0.07407407407407407,35.407407407407405,0)" xlink:href="#t"/></g><g id="o"><use transform="matrix(0.07407407407407407,0,0,0.07407407407407407,0,0)" xlink:href="#v"/><use transform="matrix(0.07407407407407407,0,0,0.07407407407407407,14.814814814814813,0)" xlink:href="#z"/><use transform="matrix(0.07407407407407407,0,0,0.07407407407407407,31.037037037037035,0)" xlink:href="#H"/><use transform="matrix(0.07407407407407407,0,0,0.07407407407407407,47.259259259259245,0)" xlink:href="#C"/><use transform="matrix(0.07407407407407407,0,0,0.07407407407407407,56.07407407407407,0)" xlink:href="#x"/><use transform="matrix(0.07407407407407407,0,0,0.07407407407407407,66.44444444444444,0)" xlink:href="#z"/><use transform="matrix(0.07407407407407407,0,0,0.07407407407407407,82.66666666666666,0)" xlink:href="#M"/><use transform="matrix(0.07407407407407407,0,0,0.07407407407407407,90.07407407407408,0)" xlink:href="#M"/><use transform="matrix(0.07407407407407407,0,0,0.07407407407407407,97.48148148148145,0)" xlink:href="#s"/><use transform="matrix(0.07407407407407407,0,0,0.07407407407407407,112.29629629629628,0)" xlink:href="#x"/></g></defs></g></svg>