<svg xmlns="http://www.w3.org/2000/svg" xmlns:xlink="http://www.w3.org/1999/xlink" xmlns:lucid="lucid" width="415" height="408"><g transform="translate(-391 -493)" lucid:page-tab-id="0_0"><g stroke="#000" stroke-opacity="0" stroke-width="3" fill="#19967d"><path d="M795.27 697.1c0 106.5-86.33 192.82-192.82 192.82-106.5 0-192.83-86.33-192.83-192.83h57.85c0 74.54 60.43 134.97 134.98 134.97 74.54 0 134.98-60.43 134.98-134.98z"/><path d="M795.27 697.1c0 106.5-86.33 192.82-192.82 192.82-106.5 0-192.83-86.33-192.83-192.83h57.85c0 74.54 60.43 134.97 134.98 134.97 74.54 0 134.98-60.43 134.98-134.98z"/></g><g stroke="#000" stroke-opacity="0" stroke-width="3"><path d="M507.96 528.36c92.54-52.7 210.28-20.43 263 72.1 52.7 92.54 20.42 210.3-72.12 263L670.2 813.2c64.8-36.9 87.4-119.32 50.5-184.1-36.9-64.77-119.33-87.37-184.1-50.48z" fill="#c92d39"/><path d="M507.96 528.36c61.08-34.8 130.04-34.75 191.08.1l-28.7 50.24c-42.72-24.4-91-24.43-133.75-.08z" fill="#19967d"/></g><g stroke="#000" stroke-opacity="0" stroke-width="6"><path d="M507.1 863.37c-92.28-53.14-124.02-171.04-70.88-263.33 53.14-92.3 171.03-124.02 263.32-70.88l-28.86 50.13c-64.6-37.2-147.13-15-184.33 49.6-37.2 64.6-14.98 147.14 49.62 184.34z" fill="#ffdf71"/><path d="M507.1 863.37c-60.9-35.07-95.77-94.58-96.6-164.86l57.85-.67c.58 49.2 24.98 90.86 67.62 115.4z" fill="#19967d"/></g><path d="M447.36 590.28c-1.93-2.7-1.3-6.45 1.38-8.38l100.55-72.2c2.68-1.94 6.43-1.32 8.37 1.37l20.6 28.7c1.94 2.7 1.32 6.44-1.37 8.37l-100.55 72.2c-2.7 1.94-6.44 1.33-8.38-1.36z" stroke="#000" stroke-opacity="0" stroke-width="3" fill="#fff" fill-opacity="0"/><use xlink:href="#a" transform="matrix(0.812266440721851,-0.5832865756016127,0.5832865756016127,0.812266440721851,450.84197185264895,586.5465130273069) translate(0.8209876543210015 27.263888888888886)"/><path d="M781.33 640c3.32 0 6 2.7 6 6v123.8c0 3.3-2.68 6-6 6H746c-3.3 0-6-2.7-6-6V646c0-3.3 2.7-6 6-6z" stroke="#000" stroke-opacity="0" stroke-width="3" fill="#fff" fill-opacity="0"/><use xlink:href="#b" transform="matrix(6.123233995736766e-17,1,-1,6.123233995736766e-17,782.3333333333333,645) translate(37.20370370370371 27.263888888888886)"/><path d="M481.5 764.67c2.35-2.34 6.15-2.34 8.5 0l87.53 87.53c2.35 2.35 2.35 6.15 0 8.5l-24.98 24.97c-2.35 2.35-6.14 2.35-8.5 0l-87.52-87.53c-2.35-2.34-2.35-6.14 0-8.5z" stroke="#000" stroke-opacity="0" stroke-width="3" fill="#fff" fill-opacity="0"/><use xlink:href="#c" transform="matrix(0.7071067811865476,0.7071067811865475,-0.7071067811865475,0.7071067811865476,485.75327056370526,767.4970376543392) translate(38.0246913580247 27.263888888888886)"/><path d="M402.35 712.6c-7.37 12.96-1.26 23.47 13.65 23.47h46c14.9 0 21.02-10.5 13.65-23.47l-23.3-40.93c-7.37-12.96-19.33-12.96-26.7 0z" stroke="#fff" stroke-width="3" fill="#19967d"/><path d="M697.2 518.32c-8.74-12.07-20.83-10.85-27 2.72l-19.03 41.88c-6.17 13.58.87 23.48 15.72 22.13l46.9-4.27c14.84-1.36 19.78-12.24 11.04-24.32z" stroke="#fff" stroke-width="3" fill="#ffdf71"/><path d="M713.15 864.07c14.83-1.57 19.8-12.66 11.1-24.77l-26.82-37.37c-8.7-12.1-20.8-10.95-27.02 2.6l-19.66 42.8c-6.23 13.54.75 23.26 15.58 21.7z" stroke="#fff" stroke-width="3" fill="#c92d39"/><defs><path fill="#333" d="M140-251c80 0 125 45 125 126S219 4 139 4C58 4 15-44 15-125s44-126 125-126zm-1 214c52 0 73-35 73-88 0-50-21-86-72-86-52 0-73 35-73 86s22 88 72 88" id="d"/><path fill="#333" d="M135-194c52 0 70 43 70 98 0 56-19 99-73 100-30 1-46-15-58-35L72 0H24l1-261h50v104c11-23 29-37 60-37zM114-30c31 0 40-27 40-66 0-37-7-63-39-63s-41 28-41 65c0 36 8 64 40 64" id="e"/><path fill="#333" d="M137-138c1-29-70-34-71-4 15 46 118 7 119 86 1 83-164 76-172 9l43-7c4 19 20 25 44 25 33 8 57-30 24-41C81-84 22-81 20-136c-2-80 154-74 161-7" id="f"/><path fill="#333" d="M185-48c-13 30-37 53-82 52C43 2 14-33 14-96s30-98 90-98c62 0 83 45 84 108H66c0 31 8 55 39 56 18 0 30-7 34-22zm-45-69c5-46-57-63-70-21-2 6-4 13-4 21h74" id="g"/><path fill="#333" d="M135-150c-39-12-60 13-60 57V0H25l-1-190h47c2 13-1 29 3 40 6-28 27-53 61-41v41" id="h"/><path fill="#333" d="M128 0H69L1-190h53L99-40l48-150h52" id="i"/><g id="a"><use transform="matrix(0.08641975308641973,0,0,0.08641975308641973,0,0)" xlink:href="#d"/><use transform="matrix(0.08641975308641973,0,0,0.08641975308641973,24.197530864197525,0)" xlink:href="#e"/><use transform="matrix(0.08641975308641973,0,0,0.08641975308641973,43.12345679012344,0)" xlink:href="#f"/><use transform="matrix(0.08641975308641973,0,0,0.08641975308641973,60.4074074074074,0)" xlink:href="#g"/><use transform="matrix(0.08641975308641973,0,0,0.08641975308641973,77.69135802469134,0)" xlink:href="#h"/><use transform="matrix(0.08641975308641973,0,0,0.08641975308641973,89.7901234567901,0)" xlink:href="#i"/><use transform="matrix(0.08641975308641973,0,0,0.08641975308641973,107.07407407407405,0)" xlink:href="#g"/></g><path fill="#333" d="M24-248c120-7 223 5 221 122C244-46 201 0 124 0H24v-248zM76-40c74 7 117-18 117-86 0-67-45-88-117-82v168" id="j"/><path fill="#333" d="M25-224v-37h50v37H25zM25 0v-190h50V0H25" id="k"/><path fill="#333" d="M121-226c-27-7-43 5-38 36h38v33H83V0H34v-157H6v-33h28c-9-59 32-81 87-68v32" id="l"/><g id="b"><use transform="matrix(0.08641975308641973,0,0,0.08641975308641973,0,0)" xlink:href="#j"/><use transform="matrix(0.08641975308641973,0,0,0.08641975308641973,22.38271604938271,0)" xlink:href="#k"/><use transform="matrix(0.08641975308641973,0,0,0.08641975308641973,31.024691358024686,0)" xlink:href="#l"/><use transform="matrix(0.08641975308641973,0,0,0.08641975308641973,41.30864197530863,0)" xlink:href="#l"/></g><path fill="#333" d="M199 0l-22-63H83L61 0H9l90-248h61L250 0h-51zm-33-102l-36-108c-10 38-24 72-36 108h72" id="m"/><path fill="#333" d="M190-63c-7 42-38 67-86 67-59 0-84-38-90-98-12-110 154-137 174-36l-49 2c-2-19-15-32-35-32-30 0-35 28-38 64-6 74 65 87 74 30" id="n"/><path fill="#333" d="M115-3C79 11 28 4 28-45v-112H4v-33h27l15-45h31v45h36v33H77v99c-1 23 16 31 38 25v30" id="o"/><g id="c"><use transform="matrix(0.08641975308641973,0,0,0.08641975308641973,0,0)" xlink:href="#m"/><use transform="matrix(0.08641975308641973,0,0,0.08641975308641973,22.38271604938271,0)" xlink:href="#n"/><use transform="matrix(0.08641975308641973,0,0,0.08641975308641973,39.66666666666666,0)" xlink:href="#o"/></g></defs></g></svg>