<?xml version="1.0" encoding="UTF-8" standalone="no"?><svg xmlns="http://www.w3.org/2000/svg" xmlns:xlink="http://www.w3.org/1999/xlink" contentStyleType="text/css" height="307px" preserveAspectRatio="none" style="width:1485px;height:307px;background:#FFFFFF;" version="1.1" viewBox="0 0 1485 307" width="1485px" zoomAndPan="magnify"><defs/><g><line style="stroke:#181818;stroke-width:0.5;stroke-dasharray:5.0,5.0;" x1="33" x2="33" y1="36.2969" y2="272.2266"/><line style="stroke:#181818;stroke-width:0.5;stroke-dasharray:5.0,5.0;" x1="166" x2="166" y1="36.2969" y2="272.2266"/><line style="stroke:#181818;stroke-width:0.5;stroke-dasharray:5.0,5.0;" x1="476" x2="476" y1="36.2969" y2="272.2266"/><line style="stroke:#181818;stroke-width:0.5;stroke-dasharray:5.0,5.0;" x1="620" x2="620" y1="36.2969" y2="272.2266"/><line style="stroke:#181818;stroke-width:0.5;stroke-dasharray:5.0,5.0;" x1="802" x2="802" y1="36.2969" y2="272.2266"/><line style="stroke:#181818;stroke-width:0.5;stroke-dasharray:5.0,5.0;" x1="1112" x2="1112" y1="36.2969" y2="272.2266"/><line style="stroke:#181818;stroke-width:0.5;stroke-dasharray:5.0,5.0;" x1="1399.5" x2="1399.5" y1="36.2969" y2="272.2266"/><rect fill="#E2E2F0" height="30.2969" rx="2.5" ry="2.5" style="stroke:#181818;stroke-width:0.5;" width="57" x="5" y="5"/><text fill="#000000" font-family="sans-serif" font-size="14" lengthAdjust="spacing" textLength="43" x="12" y="24.9951">Client</text><rect fill="#E2E2F0" height="30.2969" rx="2.5" ry="2.5" style="stroke:#181818;stroke-width:0.5;" width="57" x="5" y="271.2266"/><text fill="#000000" font-family="sans-serif" font-size="14" lengthAdjust="spacing" textLength="43" x="12" y="291.2217">Client</text><rect fill="#E2E2F0" height="30.2969" rx="2.5" ry="2.5" style="stroke:#181818;stroke-width:0.5;" width="151" x="91" y="5"/><text fill="#000000" font-family="sans-serif" font-size="14" lengthAdjust="spacing" textLength="137" x="98" y="24.9951">Route: kafka-route</text><rect fill="#E2E2F0" height="30.2969" rx="2.5" ry="2.5" style="stroke:#181818;stroke-width:0.5;" width="151" x="91" y="271.2266"/><text fill="#000000" font-family="sans-serif" font-size="14" lengthAdjust="spacing" textLength="137" x="98" y="291.2217">Route: kafka-route</text><rect fill="#E2E2F0" height="30.2969" rx="2.5" ry="2.5" style="stroke:#181818;stroke-width:0.5;" width="145" x="404" y="5"/><text fill="#000000" font-family="sans-serif" font-size="14" lengthAdjust="spacing" textLength="131" x="411" y="24.9951">Service: kafka-svc</text><rect fill="#E2E2F0" height="30.2969" rx="2.5" ry="2.5" style="stroke:#181818;stroke-width:0.5;" width="145" x="404" y="271.2266"/><text fill="#000000" font-family="sans-serif" font-size="14" lengthAdjust="spacing" textLength="131" x="411" y="291.2217">Service: kafka-svc</text><rect fill="#E2E2F0" height="30.2969" rx="2.5" ry="2.5" style="stroke:#181818;stroke-width:0.5;" width="123" x="559" y="5"/><text fill="#000000" font-family="sans-serif" font-size="14" lengthAdjust="spacing" textLength="109" x="566" y="24.9951">kafka-broker-2</text><rect fill="#E2E2F0" height="30.2969" rx="2.5" ry="2.5" style="stroke:#181818;stroke-width:0.5;" width="123" x="559" y="271.2266"/><text fill="#000000" font-family="sans-serif" font-size="14" lengthAdjust="spacing" textLength="109" x="566" y="291.2217">kafka-broker-2</text><rect fill="#E2E2F0" height="30.2969" rx="2.5" ry="2.5" style="stroke:#181818;stroke-width:0.5;" width="220" x="692" y="5"/><text fill="#000000" font-family="sans-serif" font-size="14" lengthAdjust="spacing" textLength="206" x="699" y="24.9951">Route: kafka-broker-2-route</text><rect fill="#E2E2F0" height="30.2969" rx="2.5" ry="2.5" style="stroke:#181818;stroke-width:0.5;" width="220" x="692" y="271.2266"/><text fill="#000000" font-family="sans-serif" font-size="14" lengthAdjust="spacing" textLength="206" x="699" y="291.2217">Route: kafka-broker-2-route</text><rect fill="#E2E2F0" height="30.2969" rx="2.5" ry="2.5" style="stroke:#181818;stroke-width:0.5;" width="214" x="1005" y="5"/><text fill="#000000" font-family="sans-serif" font-size="14" lengthAdjust="spacing" textLength="200" x="1012" y="24.9951">Service: kafka-broker-2-svc</text><rect fill="#E2E2F0" height="30.2969" rx="2.5" ry="2.5" style="stroke:#181818;stroke-width:0.5;" width="214" x="1005" y="271.2266"/><text fill="#000000" font-family="sans-serif" font-size="14" lengthAdjust="spacing" textLength="200" x="1012" y="291.2217">Service: kafka-broker-2-svc</text><rect fill="#E2E2F0" height="30.2969" rx="2.5" ry="2.5" style="stroke:#181818;stroke-width:0.5;" width="159" x="1320.5" y="5"/><text fill="#000000" font-family="sans-serif" font-size="14" lengthAdjust="spacing" textLength="145" x="1327.5" y="24.9951">Pod: kafka-broker-2</text><rect fill="#E2E2F0" height="30.2969" rx="2.5" ry="2.5" style="stroke:#181818;stroke-width:0.5;" width="159" x="1320.5" y="271.2266"/><text fill="#000000" font-family="sans-serif" font-size="14" lengthAdjust="spacing" textLength="145" x="1327.5" y="291.2217">Pod: kafka-broker-2</text><polygon fill="#181818" points="154.5,66.4297,164.5,70.4297,154.5,74.4297,158.5,70.4297" style="stroke:#181818;stroke-width:1.0;"/><line style="stroke:#181818;stroke-width:1.0;" x1="33.5" x2="160.5" y1="70.4297" y2="70.4297"/><text fill="#000000" font-family="sans-serif" font-size="13" lengthAdjust="spacing" textLength="109" x="40.5" y="65.3638">Initial Connection</text><path d="M171,51.2969 L171,76.2969 L609,76.2969 L609,61.2969 L599,51.2969 L171,51.2969 " fill="#FEFFDD" style="stroke:#181818;stroke-width:0.5;"/><path d="M599,51.2969 L599,61.2969 L609,61.2969 L599,51.2969 " fill="#FEFFDD" style="stroke:#181818;stroke-width:0.5;"/><text fill="#000000" font-family="sans-serif" font-size="13" lengthAdjust="spacing" textLength="417" x="177" y="68.3638">The client used the address "kafka.apps.ocp4.example.com:443"</text><polygon fill="#181818" points="464.5,98.5625,474.5,102.5625,464.5,106.5625,468.5,102.5625" style="stroke:#181818;stroke-width:1.0;"/><line style="stroke:#181818;stroke-width:1.0;" x1="166.5" x2="470.5" y1="102.5625" y2="102.5625"/><text fill="#000000" font-family="sans-serif" font-size="13" lengthAdjust="spacing" textLength="286" x="173.5" y="97.4966">Forwards connection to service on port 9093</text><polygon fill="#181818" points="1388,127.6953,1398,131.6953,1388,135.6953,1392,131.6953" style="stroke:#181818;stroke-width:1.0;"/><line style="stroke:#181818;stroke-width:1.0;" x1="476.5" x2="1394" y1="131.6953" y2="131.6953"/><text fill="#000000" font-family="sans-serif" font-size="13" lengthAdjust="spacing" textLength="257" x="483.5" y="126.6294">Forwards initial connection to the broker</text><polygon fill="#181818" points="44.5,156.8281,34.5,160.8281,44.5,164.8281,40.5,160.8281" style="stroke:#181818;stroke-width:1.0;"/><line style="stroke:#181818;stroke-width:1.0;" x1="38.5" x2="619.5" y1="160.8281" y2="160.8281"/><text fill="#000000" font-family="sans-serif" font-size="13" lengthAdjust="spacing" textLength="395" x="50.5" y="155.7622">Use this address kafka-broker-2.apps.ocp4.example.com:443</text><polygon fill="#181818" points="790,188.9609,800,192.9609,790,196.9609,794,192.9609" style="stroke:#181818;stroke-width:1.0;"/><line style="stroke:#181818;stroke-width:1.0;" x1="33.5" x2="796" y1="192.9609" y2="192.9609"/><text fill="#000000" font-family="sans-serif" font-size="13" lengthAdjust="spacing" textLength="31" x="40.5" y="187.895">Hello</text><path d="M807,173.8281 L807,198.8281 L1389,198.8281 L1389,183.8281 L1379,173.8281 L807,173.8281 " fill="#FEFFDD" style="stroke:#181818;stroke-width:0.5;"/><path d="M1379,173.8281 L1379,183.8281 L1389,183.8281 L1379,173.8281 " fill="#FEFFDD" style="stroke:#181818;stroke-width:0.5;"/><text fill="#000000" font-family="sans-serif" font-size="13" lengthAdjust="spacing" textLength="561" x="813" y="190.895">The client is now using kafka-broker-2.apps.ocp4.example.com:443 to reach the broker</text><polygon fill="#181818" points="1100,221.0938,1110,225.0938,1100,229.0938,1104,225.0938" style="stroke:#181818;stroke-width:1.0;"/><line style="stroke:#181818;stroke-width:1.0;" x1="802" x2="1106" y1="225.0938" y2="225.0938"/><text fill="#000000" font-family="sans-serif" font-size="13" lengthAdjust="spacing" textLength="286" x="809" y="220.0278">Forwards connection to service on port 9093</text><polygon fill="#181818" points="1388,250.2266,1398,254.2266,1388,258.2266,1392,254.2266" style="stroke:#181818;stroke-width:1.0;"/><line style="stroke:#181818;stroke-width:1.0;" x1="1112" x2="1394" y1="254.2266" y2="254.2266"/><text fill="#000000" font-family="sans-serif" font-size="13" lengthAdjust="spacing" textLength="264" x="1119" y="249.1606">Forwards connection to pod on port 9093</text><!--MD5=[e989b6792d3e4088141758538a4e3e0f]
@startuml
participant "Pod: kafka-broker-2" order 70
Client -> "Route: kafka-route": Initial Connection
note right
  The client used the address "kafka.apps.ocp4.example.com:443"
end note
"Route: kafka-route" -> "Service: kafka-svc": Forwards connection to service on port 9093
"Service: kafka-svc" -> "Pod: kafka-broker-2": Forwards initial connection to the broker
"kafka-broker-2" -> "Client": Use this address kafka-broker-2.apps.ocp4.example.com:443
"Client" -> "Route: kafka-broker-2-route": Hello
note right
  The client is now using kafka-broker-2.apps.ocp4.example.com:443 to reach the broker
end note
"Route: kafka-broker-2-route" -> "Service: kafka-broker-2-svc": Forwards connection to service on port 9093
"Service: kafka-broker-2-svc" -> "Pod: kafka-broker-2": Forwards connection to pod on port 9093
@enduml

PlantUML version 1.2022.7beta2(Unknown compile time)
(GPL source distribution)
Java Runtime: Java(TM) SE Runtime Environment
JVM: Java HotSpot(TM) 64-Bit Server VM
Default Encoding: UTF-8
Language: en
Country: US
--></g></svg>