<?xml version="1.0" encoding="UTF-8" standalone="no"?>
<!DOCTYPE svg PUBLIC "-//W3C//DTD SVG 1.1//EN" "http://www.w3.org/Graphics/SVG/1.1/DTD/svg11.dtd">
<!-- Generated by Microsoft Visio, SVG Export vRA Dependencies.svg Page-1 -->
<svg xmlns="http://www.w3.org/2000/svg" xmlns:xlink="http://www.w3.org/1999/xlink" xmlns:ev="http://www.w3.org/2001/xml-events"
		xmlns:v="http://schemas.microsoft.com/visio/2003/SVGExtensions/" width="3.85505in" height="4.71181in"
		viewBox="0 0 277.563 339.25" xml:space="preserve" color-interpolation-filters="sRGB" class="st9">
	<v:documentProperties v:langID="1033" v:viewMarkup="false"/>

	<style type="text/css">
	<![CDATA[
		.st1 {visibility:visible}
		.st2 {fill:#000000;fill-opacity:0.22;filter:url(#filter_2);stroke:#000000;stroke-opacity:0.22}
		.st3 {fill:#5b9bd5;stroke:#c7c8c8;stroke-width:0.25}
		.st4 {fill:#feffff;font-family:Calibri;font-size:1.99999em;font-weight:bold}
		.st5 {font-size:1em}
		.st6 {fill:#5b9bd5;fill-opacity:0.25;filter:url(#filter_2);stroke:#5b9bd5;stroke-opacity:0.25}
		.st7 {fill:#4f87bb;stroke:#40709c;stroke-width:0.75}
		.st8 {fill:#000000;fill-opacity:0.25;filter:url(#filter_2);stroke:#000000;stroke-opacity:0.25}
		.st9 {fill:none;fill-rule:evenodd;font-size:12px;overflow:visible;stroke-linecap:square;stroke-miterlimit:3}
	]]>
	</style>

	<defs id="Filters">
		<filter id="filter_2">
			<feGaussianBlur stdDeviation="2"/>
		</filter>
	</defs>
	<g v:mID="0" v:index="1" v:groupContext="foregroundPage">
		<title>Page-1</title>
		<v:pageProperties v:drawingScale="1" v:pageScale="1" v:drawingUnits="0" v:shadowOffsetX="9" v:shadowOffsetY="-9"/>
		<g id="shape1-1" v:mID="1" v:groupContext="shape" transform="translate(84.4361,-260.098)">
			<title>Rectangle</title>
			<desc>vRA</desc>
			<v:userDefs>
				<v:ud v:nameU="visVersion" v:val="VT0(15):26"/>
			</v:userDefs>
			<v:textBlock v:margins="rect(4,4,4,4)"/>
			<v:textRect cx="58.5" cy="300.25" width="117.01" height="78"/>
			<g id="shadow1-2" v:groupContext="shadow" v:shadowOffsetX="0.345598" v:shadowOffsetY="-1.97279" v:shadowType="1"
					transform="matrix(1,0,0,1,0.345598,1.97279)" class="st1">
				<rect x="0" y="261.25" width="117" height="78" rx="13.5" ry="13.5" class="st2"/>
			</g>
			<rect x="0" y="261.25" width="117" height="78" rx="13.5" ry="13.5" class="st3"/>
			<text x="38.8" y="307.45" class="st4" v:langID="1033"><v:paragraph v:horizAlign="1"/><v:tabList/>vRA</text>		</g>
		<g id="shape5-7" v:mID="5" v:groupContext="shape" transform="translate(84.4361,-134.098)">
			<title>Rectangle.5</title>
			<desc>Active Directory</desc>
			<v:userDefs>
				<v:ud v:nameU="visVersion" v:val="VT0(15):26"/>
			</v:userDefs>
			<v:textBlock v:margins="rect(4,4,4,4)"/>
			<v:textRect cx="58.5" cy="300.25" width="117.01" height="78"/>
			<g id="shadow5-8" v:groupContext="shadow" v:shadowOffsetX="0.345598" v:shadowOffsetY="-1.97279" v:shadowType="1"
					transform="matrix(1,0,0,1,0.345598,1.97279)" class="st1">
				<rect x="0" y="261.25" width="117" height="78" rx="13.5" ry="13.5" class="st2"/>
			</g>
			<rect x="0" y="261.25" width="117" height="78" rx="13.5" ry="13.5" class="st3"/>
			<text x="27.38" y="293.05" class="st4" v:langID="1033"><v:paragraph v:horizAlign="1"/><v:tabList/>Active <tspan
						x="12.1" dy="1.2em" class="st5">Directory</tspan></text>		</g>
		<g id="shape6-14" v:mID="6" v:groupContext="shape" transform="translate(84.4361,-5.0978)">
			<title>Rectangle.6</title>
			<desc>DNS</desc>
			<v:userDefs>
				<v:ud v:nameU="visVersion" v:val="VT0(15):26"/>
			</v:userDefs>
			<v:textBlock v:margins="rect(4,4,4,4)"/>
			<v:textRect cx="58.5" cy="300.25" width="117.01" height="78"/>
			<g id="shadow6-15" v:groupContext="shadow" v:shadowOffsetX="0.345598" v:shadowOffsetY="-1.97279" v:shadowType="1"
					transform="matrix(1,0,0,1,0.345598,1.97279)" class="st1">
				<rect x="0" y="261.25" width="117" height="78" rx="13.5" ry="13.5" class="st2"/>
			</g>
			<rect x="0" y="261.25" width="117" height="78" rx="13.5" ry="13.5" class="st3"/>
			<text x="37.36" y="307.45" class="st4" v:langID="1033"><v:paragraph v:horizAlign="1"/><v:tabList/>DNS</text>		</g>
		<g id="shape7-20" v:mID="7" v:groupContext="shape" transform="translate(-196.314,127.152) rotate(-90)">
			<title>Simple Arrow</title>
			<v:userDefs>
				<v:ud v:nameU="visVersion" v:val="VT0(15):26"/>
				<v:ud v:nameU="ArrowType" v:prompt="" v:val="VT0(2):26"/>
			</v:userDefs>
			<g id="shadow7-21" v:groupContext="shadow" v:shadowOffsetX="0.345598" v:shadowOffsetY="-1.97279" v:shadowType="1"
					transform="matrix(1,0,0,1,-1.97279,0.345598)" class="st1">
				<path d="M0 339.25 L12 321.25 L12 330.25 L48 330.25 L48 339.25 L48 348.25 L12 348.25 L12 357.25 L0 339.25 Z"
						class="st6"/>
			</g>
			<path d="M0 339.25 L12 321.25 L12 330.25 L48 330.25 L48 339.25 L48 348.25 L12 348.25 L12 357.25 L0 339.25 Z"
					class="st7"/>
		</g>
		<g id="shape8-25" v:mID="8" v:groupContext="shape" transform="translate(-101.814,310.527) rotate(-90)">
			<title>Simple Arrow.8</title>
			<desc>Downstream</desc>
			<v:userDefs>
				<v:ud v:nameU="visVersion" v:val="VT0(15):26"/>
				<v:ud v:nameU="ArrowType" v:prompt="" v:val="VT0(2):26"/>
			</v:userDefs>
			<v:textBlock v:margins="rect(4,4,4,4)"/>
			<v:textRect cx="141.188" cy="339.25" width="282.38" height="0" transform="rotate(360)"/>
			<g id="shadow8-26" v:groupContext="shadow" v:shadowOffsetX="0.345598" v:shadowOffsetY="-1.97279" v:shadowType="1"
					transform="matrix(1,0,0,1,-1.97279,0.345598)" class="st1">
				<path d="M0 339.25 L12 303.25 L12 321.25 L282.38 321.25 L282.38 339.25 L282.38 357.25 L12 357.25 L12 375.25 L0 339.25
							 Z" class="st8"/>
			</g>
			<path d="M0 339.25 L12 303.25 L12 321.25 L282.38 321.25 L282.38 339.25 L282.38 357.25 L12 357.25 L12 375.25 L0 339.25
						 Z" class="st7"/>
			<text x="76.85" y="346.45" class="st4" v:langID="1033"><v:paragraph v:horizAlign="1"/><v:tabList/>Downstream</text>		</g>
		<g id="shape9-31" v:mID="9" v:groupContext="shape" transform="translate(-196.314,256.152) rotate(-90)">
			<title>Simple Arrow.9</title>
			<v:userDefs>
				<v:ud v:nameU="visVersion" v:val="VT0(15):26"/>
				<v:ud v:nameU="ArrowType" v:prompt="" v:val="VT0(2):26"/>
			</v:userDefs>
			<g id="shadow9-32" v:groupContext="shadow" v:shadowOffsetX="0.345598" v:shadowOffsetY="-1.97279" v:shadowType="1"
					transform="matrix(1,0,0,1,-1.97279,0.345598)" class="st1">
				<path d="M0 339.25 L12 321.25 L12 330.25 L51 330.25 L51 339.25 L51 348.25 L12 348.25 L12 357.25 L0 339.25 Z"
						class="st6"/>
			</g>
			<path d="M0 339.25 L12 321.25 L12 330.25 L51 330.25 L51 339.25 L51 348.25 L12 348.25 L12 357.25 L0 339.25 Z"
					class="st7"/>
		</g>
		<g id="shape10-36" v:mID="10" v:groupContext="shape" transform="translate(378.686,31.7522) rotate(90)">
			<title>Simple Arrow.10</title>
			<desc>Upstream</desc>
			<v:userDefs>
				<v:ud v:nameU="visVersion" v:val="VT0(15):26"/>
				<v:ud v:nameU="ArrowType" v:prompt="" v:val="VT0(2):26"/>
			</v:userDefs>
			<v:textBlock v:margins="rect(4,4,4,4)"/>
			<v:textRect cx="142.2" cy="339.25" width="284.41" height="0" transform="rotate(180)"/>
			<g id="shadow10-37" v:groupContext="shadow" v:shadowOffsetX="0.345598" v:shadowOffsetY="-1.97279" v:shadowType="1"
					transform="matrix(1,0,0,1,1.97279,-0.345598)" class="st1">
				<path d="M0 339.25 L12 303.25 L12 321.25 L284.4 321.25 L284.4 339.25 L284.4 357.25 L12 357.25 L12 375.25 L0 339.25
							 Z" class="st8"/>
			</g>
			<path d="M0 339.25 L12 303.25 L12 321.25 L284.4 321.25 L284.4 339.25 L284.4 357.25 L12 357.25 L12 375.25 L0 339.25 Z"
					class="st7"/>
			<text x="-191.41" y="-332.05" transform="rotate(180)" class="st4" v:langID="1033"><v:paragraph v:horizAlign="1"/><v:tabList/>Upstream</text>		</g>
	</g>
</svg>
